<svg width="100" height="30" viewBox="0 0 100 30" fill="none" xmlns="http://www.w3.org/2000/svg">
<path d="M26.879 22.7794C27.1616 22.6156 27.3962 22.3804 27.5593 22.0973C27.7224 21.8143 27.8083 21.4934 27.8083 21.1667V8.81769C27.8083 8.49103 27.7224 8.17011 27.5593 7.88708C27.3962 7.60405 27.1616 7.36884 26.879 7.20499L24.1026 5.60011C24.0085 5.54621 23.9019 5.51792 23.7934 5.51804C23.685 5.51817 23.5784 5.54671 23.4844 5.60082C23.3904 5.65494 23.3122 5.73274 23.2576 5.82647C23.203 5.9202 23.174 6.02661 23.1733 6.13507V11.3246C23.1728 11.4333 23.1438 11.5401 23.0891 11.6341C23.0344 11.7281 22.956 11.8061 22.8617 11.8602C22.7674 11.9144 22.6605 11.9429 22.5517 11.9427C22.443 11.9426 22.3362 11.9139 22.242 11.8595L19.04 10.0067C18.8866 9.9181 18.7592 9.79057 18.6707 9.637C18.5823 9.48343 18.5359 9.30924 18.5363 9.13203V2.97216C18.5351 2.795 18.4881 2.62117 18.3998 2.46756C18.3115 2.31395 18.185 2.18579 18.0326 2.09553L14.8384 0.250493C14.5558 0.0864182 14.2349 0 13.9081 0C13.5813 0 13.2604 0.0864182 12.9778 0.250493L9.77582 2.09553C9.62205 2.1843 9.4945 2.31213 9.40605 2.46608C9.31759 2.62002 9.27137 2.79461 9.2721 2.97216V8.63416C9.27217 8.96106 9.35826 9.28218 9.52173 9.56526C9.68521 9.84834 9.92031 10.0834 10.2034 10.2469L19.9245 15.86C20.9143 16.4311 21.7364 17.2526 22.308 18.242C22.8797 19.2315 23.1808 20.354 23.1811 21.4967V23.8396C23.1812 23.9483 23.2099 24.055 23.2644 24.1491C23.3188 24.2432 23.3971 24.3213 23.4913 24.3755C23.5855 24.4297 23.6923 24.4582 23.801 24.458C23.9097 24.4578 24.0164 24.4291 24.1105 24.3745L26.879 22.7794Z" fill="#4FC3F4"/>
<path d="M18.0325 27.889C18.1863 27.8002 18.3138 27.6724 18.4023 27.5185C18.4908 27.3645 18.5369 27.1899 18.5362 27.0124V21.4929C18.5356 21.1664 18.4494 20.8457 18.2864 20.5627C18.1234 20.2798 17.8891 20.0445 17.6069 19.8802L7.88385 14.267C6.89298 13.6954 6.07035 12.8726 5.49894 11.8816C4.92752 10.8906 4.62751 9.76651 4.62917 8.62258V6.14302C4.62929 6.03403 4.60063 5.92695 4.54609 5.83259C4.49154 5.73824 4.41305 5.65996 4.31855 5.60567C4.22405 5.55139 4.11687 5.52302 4.00788 5.52344C3.8989 5.52386 3.79195 5.55305 3.69786 5.60806L0.929351 7.20513C0.647015 7.36927 0.41262 7.60456 0.249557 7.88752C0.0864942 8.17048 0.000456755 8.49124 0 8.81783V21.1747C0.000456755 21.5012 0.0864942 21.822 0.249557 22.105C0.41262 22.3879 0.647015 22.6232 0.929351 22.7874L3.70568 24.3922C3.79986 24.4466 3.90668 24.4753 4.01544 24.4754C4.12419 24.4755 4.23106 24.4471 4.32537 24.3929C4.41967 24.3388 4.4981 24.2608 4.55278 24.1668C4.60747 24.0727 4.63651 23.966 4.63699 23.8573V18.8337C4.63647 18.7248 4.66479 18.6177 4.71909 18.5232C4.77339 18.4288 4.85174 18.3504 4.94615 18.2961C5.04056 18.2417 5.14767 18.2134 5.2566 18.2138C5.36553 18.2143 5.4724 18.2436 5.56634 18.2987L8.7683 20.1438C8.92207 20.2326 9.04964 20.3604 9.1381 20.5143C9.22656 20.6683 9.27275 20.8429 9.27202 21.0204V27.028C9.27323 27.2052 9.32027 27.379 9.40853 27.5326C9.4968 27.6862 9.62329 27.8144 9.77573 27.9046L12.9777 29.7497C13.2603 29.9137 13.5813 30.0002 13.908 30.0002C14.2348 30.0002 14.5558 29.9137 14.8384 29.7497L18.0325 27.889Z" fill="#817EFF"/>
<path d="M54.982 18.5937C54.6866 18.9 54.3326 19.1436 53.9409 19.31C53.5493 19.4764 53.1281 19.5622 52.7026 19.5622C52.2771 19.5622 51.8559 19.4764 51.4643 19.31C51.0726 19.1436 50.7185 18.9 50.4232 18.5937C50.117 18.2841 49.8766 17.9157 49.7165 17.5107C49.5565 17.1057 49.4801 16.6725 49.4918 16.2372C49.4804 15.8054 49.5571 15.3758 49.7172 14.9747C49.8773 14.5736 50.1175 14.2093 50.4232 13.904C50.7183 13.5973 51.0723 13.3532 51.464 13.1865C51.8556 13.0198 52.2769 12.9339 52.7026 12.9339C53.1283 12.9339 53.5496 13.0198 53.9412 13.1865C54.3329 13.3532 54.6869 13.5973 54.982 13.904C55.2864 14.2101 55.5256 14.5746 55.6853 14.9756C55.8451 15.3765 55.9219 15.8057 55.9114 16.2372C55.9253 17.1147 55.5912 17.962 54.982 18.5937ZM56.8954 12.1664C55.8112 11.0496 54.4158 10.4912 52.7094 10.4912C51.003 10.4912 49.5999 11.0496 48.5 12.1664C47.9675 12.6996 47.5485 13.3352 47.2687 14.0349C46.9888 14.7346 46.8537 15.4838 46.8717 16.2372C46.8717 17.8733 47.4145 19.24 48.5 20.3372C49.5856 21.4345 50.9887 21.9851 52.7094 21.989C54.4158 21.989 55.8112 21.4384 56.8954 20.3372C57.9549 19.2395 58.547 17.7735 58.547 16.2479C58.547 14.7223 57.9549 13.2563 56.8954 12.1586V12.1664Z" fill="white"/>
<path d="M62.2762 6.40625H60.4565C60.2376 6.40625 60.0602 6.5837 60.0602 6.80259V21.3129C60.0602 21.5318 60.2376 21.7093 60.4565 21.7093H62.2762C62.4951 21.7093 62.6725 21.5318 62.6725 21.3129V6.80259C62.6725 6.5837 62.4951 6.40625 62.2762 6.40625Z" fill="white"/>
<path d="M72.3155 18.6092C72.0126 18.916 71.6517 19.1597 71.2539 19.3259C70.8561 19.4922 70.4292 19.5779 69.998 19.5779C69.5668 19.5779 69.1399 19.4922 68.7421 19.3259C68.3443 19.1597 67.9834 18.916 67.6805 18.6092C67.0933 17.9574 66.777 17.1062 66.796 16.2292C66.7792 15.3596 67.0957 14.5165 67.6805 13.8726C67.9751 13.5544 68.3342 13.3027 68.7339 13.1344C69.1335 12.966 69.5645 12.8849 69.998 12.8964C70.4318 12.8827 70.8634 12.9629 71.2634 13.1313C71.6634 13.2998 72.0223 13.5527 72.3155 13.8726C72.9183 14.5069 73.2448 15.3544 73.2234 16.2292C73.247 17.1113 72.9206 17.9669 72.3155 18.6092ZM73.1609 11.1744V12.1662C72.7255 11.6447 72.18 11.2261 71.5636 10.9405C70.9472 10.6549 70.2751 10.5094 69.5958 10.5145C68.8701 10.4955 68.1485 10.6292 67.4778 10.907C66.8071 11.1849 66.2024 11.6006 65.7027 12.1272C64.6796 13.1893 64.1681 14.5462 64.1681 16.198C64.1681 17.8497 64.6796 19.2301 65.7027 20.3293C66.1947 20.8683 66.7972 21.2948 67.469 21.5799C68.1409 21.8649 68.8663 22.0017 69.5958 21.981C70.2725 21.9938 70.9436 21.8557 71.5603 21.5768C72.1769 21.2978 72.7237 20.885 73.1609 20.3683V21.323C73.1609 21.4266 73.202 21.5259 73.2753 21.5992C73.3485 21.6724 73.4478 21.7135 73.5514 21.7135H75.248C75.3516 21.7135 75.4509 21.6724 75.5242 21.5992C75.5974 21.5259 75.6385 21.4266 75.6385 21.323V11.1705C75.6385 11.0669 75.5974 10.9676 75.5242 10.8944C75.4509 10.8211 75.3516 10.78 75.248 10.78H73.5514C73.4998 10.78 73.4487 10.7902 73.401 10.8101C73.3534 10.83 73.3102 10.8591 73.2739 10.8958C73.2376 10.9324 73.2089 10.9759 73.1895 11.0238C73.1701 11.0716 73.1604 11.1228 73.1609 11.1744Z" fill="white"/>
<path d="M84.6742 19.0657C84.1536 19.3762 83.5584 19.5396 82.9522 19.5382C82.5249 19.5506 82.0998 19.4729 81.7045 19.31C81.3093 19.1472 80.9527 18.903 80.6581 18.5932C80.3582 18.2801 80.1236 17.9106 79.9677 17.506C79.8118 17.1015 79.7379 16.67 79.7502 16.2366C79.7357 15.8009 79.8104 15.3668 79.9698 14.9609C80.1292 14.5551 80.3699 14.1862 80.6771 13.8768C80.9843 13.5674 81.3515 13.3241 81.7562 13.1618C82.1609 12.9995 82.5945 12.9217 83.0303 12.9331C83.5669 12.9235 84.097 13.0509 84.5706 13.3034C85.0441 13.5559 85.4454 13.9251 85.7364 14.376C85.791 14.4565 85.8737 14.5138 85.9683 14.5366C86.0629 14.5593 86.1626 14.5459 86.2479 14.499L87.7122 13.718C87.76 13.6936 87.8023 13.6596 87.8364 13.6181C87.8705 13.5766 87.8957 13.5285 87.9103 13.4768C87.925 13.4251 87.9288 13.371 87.9216 13.3177C87.9144 13.2645 87.8963 13.2133 87.8684 13.1674C87.4313 12.3997 86.797 11.7627 86.0312 11.3224C85.1028 10.7868 84.0474 10.511 82.9756 10.5239C81.2562 10.5239 79.8453 11.0614 78.7428 12.1366C77.6573 13.2143 77.1067 14.579 77.1067 16.2366C77.1067 17.8942 77.6416 19.2746 78.7194 20.3367C79.7971 21.3988 81.2087 21.9494 82.8917 21.9494C83.9532 21.9627 84.999 21.6932 85.9218 21.1684C86.6771 20.7478 87.3185 20.1494 87.7903 19.4249C87.8205 19.3803 87.8411 19.3299 87.8508 19.277C87.8606 19.224 87.8593 19.1696 87.847 19.1171C87.8347 19.0647 87.8117 19.0153 87.7795 18.9722C87.7472 18.9291 87.7063 18.8931 87.6595 18.8665L86.201 18.0133C86.1141 17.9619 86.0106 17.9462 85.9123 17.9695C85.814 17.9928 85.7285 18.0533 85.6739 18.1383C85.4177 18.5212 85.0753 18.8389 84.6742 19.0657Z" fill="white"/>
<path d="M91.2794 15.1907C91.4161 14.4845 91.7877 13.8452 92.3337 13.3769C92.8819 12.9248 93.5758 12.6875 94.2861 12.7092C94.9817 12.6905 95.6598 12.9282 96.1916 13.3769C96.7221 13.8415 97.0575 14.4893 97.1307 15.1907H91.2794ZM99.706 16.0127C99.706 14.3219 99.1944 12.9805 98.1714 12.0043C97.1483 11.0281 95.8539 10.5146 94.2802 10.5146C92.5972 10.5146 91.2325 11.0574 90.1704 12.143C89.1083 13.2285 88.5967 14.5698 88.5967 16.243C88.5913 16.9665 88.7122 17.6854 88.954 18.3673C89.188 19.0329 89.5458 19.6483 90.0083 20.1811C90.5209 20.7516 91.1574 21.1971 91.869 21.4833C92.7117 21.8192 93.6133 21.9825 94.5204 21.9636C96.104 21.9931 97.659 21.5388 98.9777 20.6614C99.0605 20.6048 99.1191 20.5193 99.1418 20.4217C99.1646 20.3241 99.1499 20.2215 99.1007 20.1342L98.435 18.9491C98.4098 18.9019 98.3753 18.8604 98.3335 18.8271C98.2917 18.7938 98.2435 18.7694 98.1918 18.7555C98.1402 18.7416 98.0863 18.7384 98.0334 18.7462C97.9805 18.754 97.9298 18.7725 97.8844 18.8007C96.9037 19.4054 95.772 19.7201 94.6199 19.7086C93.7062 19.7086 92.9623 19.484 92.3961 19.033C91.814 18.5724 91.4175 17.9174 91.2794 17.188H99.2647C99.3625 17.1884 99.4568 17.1521 99.5291 17.0863C99.6014 17.0205 99.6464 16.93 99.6552 16.8327C99.6867 16.5598 99.7036 16.2854 99.706 16.0107V16.0127Z" fill="white"/>
<path d="M37.9726 18.7085L37.9335 18.687C37.9483 18.6902 37.9619 18.6977 37.9726 18.7085ZM43.2441 13.8411C42.6935 13.5619 42.1039 13.2905 41.4674 13.0348L39.8937 12.3065C39.0737 11.8867 38.6618 11.3674 38.6618 10.7329C38.6559 10.5127 38.7028 10.2943 38.7986 10.0959C38.8944 9.89755 39.0362 9.72499 39.2123 9.59266C39.6349 9.28762 40.1482 9.1342 40.6689 9.15727C41.2639 9.16545 41.8505 9.29848 42.3909 9.54775C42.8504 9.74459 43.2704 10.0231 43.6307 10.3697C43.7031 10.4387 43.7961 10.4822 43.8955 10.4935C43.9949 10.5047 44.0952 10.4832 44.1812 10.4322C44.5385 10.2213 45.136 9.88162 45.5694 9.63366C45.6287 9.59947 45.6797 9.55272 45.7189 9.4967C45.7582 9.44069 45.7847 9.37675 45.7966 9.30939C45.8085 9.24204 45.8055 9.17289 45.7879 9.10681C45.7702 9.04072 45.7383 8.97931 45.6944 8.92688C45.3878 8.56653 45.0442 8.23934 44.6694 7.95067C43.5467 7.03499 42.1976 6.58398 40.6239 6.58398C39.142 6.58398 37.957 6.99595 37.0569 7.81791C36.618 8.19119 36.2676 8.65745 36.0312 9.1829C35.7948 9.70835 35.6784 10.2798 35.6902 10.8559C35.6902 12.3905 36.4712 13.6088 38.0331 14.5225C38.6012 14.835 39.188 15.1121 39.7903 15.3523C40.542 15.6471 41.03 15.8482 41.2624 15.9575C42.1937 16.4144 42.6505 16.9806 42.6505 17.6464C42.6522 17.8893 42.5952 18.129 42.4844 18.3452C42.3736 18.5614 42.2122 18.7476 42.0141 18.8881C41.5379 19.2331 40.9596 19.4078 40.3721 19.384C39.686 19.3914 39.0071 19.2432 38.3865 18.9506L37.8828 18.6636C37.4341 18.3656 37.0365 17.997 36.7054 17.5722C36.6375 17.4811 36.538 17.4187 36.4264 17.397C36.3149 17.3753 36.1993 17.396 36.1022 17.455C35.7371 17.6639 35.1787 17.99 34.7765 18.2223C34.7213 18.2549 34.6733 18.2983 34.6353 18.35C34.5974 18.4016 34.5703 18.4604 34.5557 18.5228C34.5411 18.5852 34.5393 18.6499 34.5504 18.713C34.5615 18.7762 34.5852 18.8364 34.6203 18.8901C34.8155 19.1771 35.0478 19.4875 35.206 19.6886C35.732 20.34 36.3936 20.869 37.1447 21.2388C38.1259 21.7313 39.2099 21.9835 40.3076 21.9749C41.8813 21.9749 43.1627 21.559 44.152 20.7273C44.6315 20.3403 45.0153 19.848 45.2737 19.2886C45.532 18.7293 45.658 18.1178 45.6417 17.5019C45.6866 15.8872 44.8802 14.6709 43.2363 13.8411H43.2441Z" fill="white"/>
</svg>
