<?xml version="1.0" encoding="UTF-8"?>
<svg id="Layer_1" data-name="Layer 1" xmlns="http://www.w3.org/2000/svg" viewBox="0 0 100 100">
  <defs>
    <style>
      .cls-1 {
        fill: #ccf;
      }
    </style>
  </defs>
  <path class="cls-1" d="M25.03,89.99c-8.42,0-15.02-6.63-15.03-15.07-.01-16.61-.01-33.22,0-49.83,0-8.58,6.51-15.06,15.12-15.07h39.77c3.36,0,6.71,0,10.07,0,7.34,.01,13.26,4.84,14.74,12.02,.19,.91,.28,1.94,.28,3.05,.02,16.61,.02,33.22,0,49.83,0,8.44-6.61,15.07-15.03,15.08-8.32,0-16.65,.01-24.97,.01s-16.65,0-24.97-.01Zm.44-75.33c-6.47,0-10.83,4.35-10.83,10.83v49.04c0,6.47,4.36,10.83,10.84,10.83h49.05c6.47,0,10.82-4.35,10.83-10.83V25.47c0-6.47-4.36-10.82-10.84-10.82h-24.52s-24.52,0-24.52,0Z"/>
  <path class="cls-1" d="M31.67,75.91c-1.01,0-1.75-.23-2.19-.68-.44-.44-.65-1.17-.64-2.16,.15-10.55,8.85-19.76,19.39-20.53,.56-.04,1.12-.06,1.67-.06,10.57,0,19.2,7.34,21.01,17.86,.14,.81,.21,1.71,.24,2.91,.02,.87-.19,1.54-.62,1.99s-1.1,.67-1.97,.68h-7.94s-28.94,0-28.94,0Zm18.22-18.81c-8.75,.05-14.99,6.73-15.97,13.16l-.14,.94h32.44l-.14-.94c-.81-5.47-6.33-13.17-16.07-13.17h-.11Z"/>
  <path class="cls-1" d="M49.95,48.62c-6.45-.02-11.7-5.3-11.68-11.76,.01-6.46,5.28-11.71,11.74-11.71,3.14,0,6.09,1.24,8.3,3.46,2.23,2.24,3.45,5.22,3.44,8.37-.03,6.42-5.3,11.64-11.75,11.64h-.05Zm.02-18.83c-3.87,.02-7.04,3.19-7.06,7.06,0,1.9,.72,3.68,2.06,5.03,1.34,1.35,3.12,2.09,5.02,2.09,1.92,0,3.71-.74,5.05-2.08,1.33-1.34,2.06-3.11,2.06-5.01,0-3.91-3.19-7.09-7.08-7.09h-.04Z"/>
</svg>