<?xml version="1.0" encoding="UTF-8"?>
<svg id="Layer_1" data-name="Layer 1" xmlns="http://www.w3.org/2000/svg" viewBox="0 0 100 100">
  <defs>
    <style>
      .cls-1 {
        fill: #ccf;
      }
    </style>
  </defs>
  <path class="cls-1" d="M77.65,88.46c-12.13,0-24.26,0-36.38,0H19.02c-.26,0-.53,0-.79-.02-2.32-.11-4.33-1.05-5.98-2.81-1.07-1.14-1.76-2.57-2.24-4.63V25.89s.03-.08,.03-.08h.43s-.35-.14-.35-.14c1.17-4.85,4.28-7.31,9.25-7.31h8.06c4.35,0,8.7,0,13.05-.02,.42,0,.89-.13,1.26-.33,2.71-1.52,5.4-3.07,8.09-4.61l2.31-1.32c.66-.38,1.15-.54,1.6-.54,.94,0,1.51,.77,1.94,1.52l4.13,7.15,5.53-3.16c.66-.38,1.16-.55,1.61-.55,.93,0,1.5,.77,1.93,1.51l1.63,2.82c1.92,3.32,3.84,6.63,5.73,9.97,.36,.63,.67,.82,1.34,.82h.17c3.45,0,5.6,2.18,5.61,5.69,0,2.76,0,12.43,0,12.43h1.25c3.03,.04,5.33,2.33,5.36,5.32,.03,3.3,.03,6.61,0,9.91-.02,3-2.32,5.29-5.35,5.34h-1.26s0,4.04,0,4.04c0,2.84,0,5.69,0,8.53,0,1.72-.55,3.08-1.71,4.16-1.04,.97-2.32,1.42-4.02,1.42h0Zm.34-4.06c.84-.04,1.33-.53,1.33-1.35,.01-3.34,0-6.68,0-10.02v-2.72s-5.27,0-5.27,0c-1.36,0-2.72,0-4.07-.02-.91,0-1.69-.09-2.38-.24-5.08-1.14-8.61-5.99-8.04-11.04,.61-5.35,4.92-9.25,10.26-9.27,1.15,0,6.26,0,6.26,0h3.25s0-12.5,0-12.5c0-1.16-.44-1.58-1.62-1.59h-8.04s-9.49,.03-9.49,.03c-6.33,.02-12.65,.04-18.98,.04h-.36c-5.77,0-13.36-.01-20.99-.12h-.33c-1.83-.02-3.72-.05-5.45-1.24v6.5c0,12.88,0,25.76,0,38.65,0,.56,.07,1.1,.2,1.58,.58,2.07,2.31,3.31,4.64,3.31h58.72s.37,0,.37,0Zm-4.85-30.62c-.99,0-1.99,0-2.98,.03-.89,.02-1.67,.13-2.32,.34-2.95,.94-4.66,3.82-4.15,7,.47,2.94,3.12,5.08,6.29,5.1,2.03,.01,4.06,.02,6.08,.02h8.22c1.18-.01,1.65-.48,1.65-1.67,0-3.04,0-6.08,0-9.13,0-1.24-.45-1.67-1.71-1.68h-11.09ZM31.91,31.6c2.51,0,5.01,0,7.52-.02,.38,0,.83-.12,1.18-.33,4.1-2.33,8.2-4.68,12.29-7.04l2.26-1.3c.32-.18,1.13-.66,1.13-.66l-3.42-5.93-26.47,15.27h5.51Zm40.09-.06l-5.94-10.26-17.78,10.26h23.71ZM21.14,22.41c-1.48,0-2.75,.09-3.87,.27-1.72,.27-3.26,2.36-3.23,4.39,.03,2.14,1.64,4.07,3.66,4.4,.07,.01,.15,.02,.23,.02h0c.3,0,.64-.08,.9-.22,.97-.51,1.91-1.06,2.86-1.62l12.43-7.19-2.82-.02c-2.76-.02-5.52-.03-8.27-.03h-1.89Z"/>
  <path class="cls-1" d="M69.78,62.06c-1.07-.02-1.99-.94-2-2.02,0-.53,.21-1.05,.6-1.44,.38-.39,.91-.61,1.43-.61,1.11,.02,2.02,.94,2.04,2.02,0,.53-.21,1.05-.6,1.44-.39,.39-.91,.61-1.44,.61h-.03Z"/>
</svg>