<?xml version="1.0" encoding="UTF-8"?>
<svg id="Layer_1" data-name="Layer 1" xmlns="http://www.w3.org/2000/svg" viewBox="0 0 100 100">
  <defs>
    <style>
      .cls-1 {
        fill: #ccf;
      }
    </style>
  </defs>
  <path class="cls-1" d="M51.93,10c1.98,.64,3.39,2.04,4.82,3.47,10.28,10.31,20.59,20.59,30.86,30.9,.71,.71,1.41,1.53,1.78,2.44,2.1,5.08-1.04,10.25-6.48,10.47-.42,.02-.83,0-1.38,0,0,.34,0,.64,0,.94,0,7.67,.01,15.34,0,23.01-.01,4.2-2.68,7.58-6.69,8.53-.7,.17-1.44,.22-2.17,.23-4.07,.02-8.14,.01-12.21,0-1.77,0-2.71-.93-2.71-2.7,0-6.03,0-12.05,0-18.08,0-2.79-1.58-4.38-4.35-4.38-2.24,0-4.49,0-6.73,0-2.72,0-4.31,1.6-4.31,4.34,0,5.97,0,11.95,0,17.92,0,2.04-.87,2.9-2.91,2.9-3.97,0-7.93,0-11.9,0-5.25,0-8.97-3.71-8.97-8.96-.01-7.57,0-15.13,0-22.7,0-.31,0-.62,0-.97-.89-.08-1.75-.07-2.58-.23-2.79-.54-4.7-2.2-5.61-4.88-.9-2.65-.35-5.09,1.46-7.23,.24-.28,.5-.53,.76-.79,10.2-10.2,20.41-20.4,30.6-30.61,1.47-1.48,2.9-2.98,4.98-3.63h3.76Zm10.51,75.3h.96c2.9,0,5.8-.11,8.69,.03,2.93,.14,4.82-1.76,4.78-4.73-.11-8.37-.04-16.75-.04-25.12,0-2.02,.87-2.89,2.92-2.89,1.02,0,2.04,.02,3.05,0,1.09-.02,1.89-.55,2.36-1.53,.48-1.02,.33-1.98-.37-2.85-.21-.26-.46-.5-.7-.74-10.55-10.55-21.1-21.1-31.66-31.66-1.71-1.71-3.05-1.72-4.75-.02-9.45,9.44-18.89,18.89-28.34,28.34-1.31,1.31-2.63,2.61-3.92,3.94-.8,.83-.99,1.83-.54,2.89,.45,1.05,1.29,1.61,2.45,1.63,.99,.02,1.98,0,2.97,0,2.09,0,2.95,.86,2.95,2.94,0,8.53,0,17.06,0,25.59,0,2.52,1.65,4.17,4.16,4.17,3.16,0,6.31,0,9.47,0,.23,0,.45-.03,.76-.04,0-.35,0-.66,0-.96,0-5.11-.02-10.23,0-15.34,.03-4.84,3.36-8.47,8.19-8.75,2.78-.16,5.58-.04,8.37-.02,.47,0,.94,.08,1.39,.18,4.1,.92,6.8,4.29,6.82,8.57,.03,5.11,0,10.23,0,15.34,0,.31,0,.62,0,1.04Z"/>
</svg>