<?xml version="1.0" encoding="UTF-8"?>
<svg id="Layer_1" data-name="Layer 1" xmlns="http://www.w3.org/2000/svg" viewBox="0 0 100 100">
  <defs>
    <style>
      .cls-1 {
        fill: #ccf;
      }
    </style>
  </defs>
  <path class="cls-1" d="M26.98,89.99c-7.02,0-11.94-4.93-11.96-11.97-.02-6.63-.01-13.27,0-19.9v-16.56c0-6.53,0-13.05,0-19.58,0-5.18,2.29-8.84,6.77-10.88,1.43-.65,3.2-1.01,5-1.03,5.52-.05,11.05-.06,16.57-.06h16.58c2.11,0,3.81,.77,5.2,2.33,4.21,4.75,8.43,9.49,12.65,14.23l5.43,6.1c1.23,1.39,1.78,2.81,1.77,4.62-.05,9.13-.05,18.26-.04,27.39,0,4.48,0,8.96,0,13.43,0,5.35-2.94,9.63-7.65,11.17-1.33,.44-2.85,.67-4.41,.67-8.64,.03-17.28,.04-25.91,.04-6.66,0-13.32,0-19.98-.01Zm.11-75.07c-2.08,0-3.86,.69-5.16,2-1.31,1.32-2.02,3.18-2.01,5.23,.09,18.46,.09,37.21,0,55.72-.01,2.05,.7,3.91,2.01,5.22,1.3,1.3,3.07,1.99,5.12,1.99,6.9-.04,13.76-.05,20.61-.05h25.23c4.52,0,7.11-2.57,7.11-7.08V38.33s-5.85,0-5.85,0c-1,0-1.99,0-2.98-.02-5.83-.07-10.41-3.77-11.38-9.21-.3-1.7-.29-3.52-.28-5.29,0-.71,0-1.42,0-2.12-.03-1.32-.02-2.65-.01-4.02v-2.73s-16.53,.03-19.42,.03c-4.29,0-8.58-.01-12.88-.06h-.11Zm47.25,18.47c.35,0,.72,0,1.08,.04l2,.15-12.96-14.57v2.15c0,.71,0,1.39-.01,2.04-.01,1.43-.02,2.76,.03,4.09,.09,2.48,1.35,4.37,3.64,5.47,1.29,.62,2.6,.7,3.71,.7,.41,0,.82-.01,1.24-.03,.42-.01,.84-.03,1.27-.03Z"/>
  <path class="cls-1" d="M47.39,68.92c-.66,0-1.36-.37-2.13-1.13-1.91-1.9-3.82-3.81-5.72-5.72-.62-.62-.96-1.36-.96-2.08,0-.61,.26-1.18,.73-1.65,.46-.45,1.02-.69,1.64-.69,.71,0,1.44,.33,2.03,.92,.86,.85,1.7,1.71,2.57,2.61l1.8,1.84,3.64-3.64c2.64-2.64,5.24-5.24,7.82-7.84,.7-.71,1.32-1.02,2.02-1.02,1.18,.05,1.89,.52,2.28,1.44,.44,1.02,.29,1.91-.48,2.71-1,1.05-2.02,2.06-3.05,3.08,0,0-7.73,7.73-10.05,10.04-.78,.77-1.48,1.15-2.15,1.15Z"/>
</svg>