<?xml version="1.0" encoding="UTF-8"?>
<svg id="Layer_1" data-name="Layer 1" xmlns="http://www.w3.org/2000/svg" viewBox="0 0 100 100">
  <defs>
    <style>
      .cls-1 {
        fill: #ccf;
      }
    </style>
  </defs>
  <path class="cls-1" d="M53.58,10c.24,.07,.48,.16,.72,.22,3.23,.85,5.45,3.66,5.53,7,.04,1.78,.05,1.77,1.72,2.44,.89,.36,1.78,.72,2.64,1.16,.49,.25,.81,.24,1.19-.19,1.22-1.37,2.66-2.4,4.52-2.72,2.29-.39,4.38,.08,6.11,1.63,1.53,1.37,2.99,2.83,4.36,4.35,2.48,2.76,2.47,7.04-.18,9.71-1.16,1.17-1.35,2.05-.51,3.39,.44,.69,.68,1.52,.92,2.31,.18,.62,.47,.87,1.14,.82,1.64-.11,3.22,.14,4.64,1.04,2.26,1.42,3.49,3.48,3.55,6.14,.05,2.13,.13,4.28-.14,6.39-.45,3.53-3.47,6.04-7.01,6.13-1.84,.05-1.83,.05-2.51,1.75-.36,.89-.71,1.79-1.16,2.64-.28,.53-.18,.82,.23,1.18,1.36,1.23,2.39,2.67,2.7,4.53,.38,2.26-.08,4.34-1.61,6.04-1.38,1.55-2.86,3.04-4.4,4.42-2.73,2.44-6.86,2.38-9.62-.08-.52-.46-.94-1.04-1.32-1.47-1.77,.7-3.34,1.31-4.89,1.96-.18,.08-.32,.42-.34,.66-.11,1-.02,2.06-.28,3.01-.83,2.97-2.8,4.95-5.87,5.31-2.43,.28-4.95,.3-7.38,0-3.67-.43-6.12-3.49-6.19-7.19-.03-1.65-.03-1.63-1.55-2.25-.99-.4-1.97-.81-2.92-1.28-.44-.22-.69-.16-1,.18-1.25,1.38-2.68,2.46-4.57,2.78-2.35,.41-4.47-.11-6.23-1.71-1.42-1.29-2.79-2.66-4.09-4.07-2.68-2.89-2.7-7.22,.09-10.01,1.06-1.06,1.3-1.85,.5-3.12-.53-.84-.74-1.88-1.15-2.8-.09-.21-.41-.44-.65-.46-.77-.08-1.57,0-2.33-.12-3.13-.52-5.37-2.7-6.07-5.83-.03-.12-.1-.23-.14-.34,0-2.39,0-4.79,0-7.18,.06-.17,.13-.33,.17-.5,.73-2.83,2.47-4.72,5.29-5.5,.93-.26,1.95-.23,2.93-.26,.49-.01,.73-.14,.88-.63,.29-.91,.56-1.87,1.07-2.67,.8-1.26,.57-2.05-.49-3.12-2.81-2.81-2.77-7.15-.05-10.06,1.31-1.41,2.67-2.78,4.1-4.06,1.75-1.57,3.85-2.08,6.17-1.67,1.68,.29,3.07,1.13,4.18,2.39,.58,.66,1.07,.85,1.88,.35,.7-.43,1.51-.68,2.28-.99,1.67-.66,1.67-.66,1.71-2.45,.08-3.14,2.06-5.85,5.01-6.84,.41-.14,.83-.26,1.25-.38,2.39,0,4.79,0,7.18,0ZM14.7,49.91c0,.81,0,1.61,0,2.42,.02,1.69,1.1,2.79,2.77,2.81,1.07,.01,2.13,0,3.2,0,1.29,.02,2.11,.63,2.45,1.88,.66,2.42,1.61,4.71,2.85,6.9,.7,1.23,.56,2.15-.44,3.17-.73,.74-1.48,1.46-2.2,2.21-1.15,1.19-1.16,2.71,0,3.9,1.13,1.16,2.27,2.3,3.42,3.42,1.18,1.15,2.7,1.15,3.9,.01,.73-.7,1.44-1.43,2.16-2.15,1.08-1.07,2-1.22,3.3-.48,2.13,1.22,4.38,2.14,6.75,2.8,1.38,.38,1.96,1.17,1.97,2.62,0,1.04-.01,2.08,0,3.12,.03,1.58,1.13,2.69,2.72,2.7,1.61,.02,3.23,.02,4.84,0,1.67-.01,2.76-1.12,2.78-2.81,.01-1.04,0-2.08,0-3.12,.02-1.33,.62-2.14,1.92-2.5,2.39-.66,4.67-1.6,6.82-2.83,1.27-.72,2.18-.58,3.24,.45,.74,.73,1.46,1.48,2.21,2.2,1.17,1.11,2.69,1.12,3.84,0,1.18-1.14,2.34-2.3,3.48-3.48,1.12-1.15,1.12-2.67,0-3.84-.73-.77-1.51-1.51-2.25-2.27-.99-1.01-1.12-1.94-.41-3.18,1.23-2.16,2.17-4.43,2.83-6.82,.37-1.32,1.18-1.91,2.57-1.93,1.07-.01,2.13,.01,3.2,0,1.53-.03,2.64-1.14,2.66-2.68,.02-1.64,.02-3.28,0-4.92-.02-1.62-1.13-2.71-2.77-2.73-1.07-.01-2.13,.01-3.2,0-1.28-.02-2.11-.64-2.45-1.88-.66-2.42-1.62-4.71-2.85-6.9-.7-1.23-.55-2.15,.45-3.17,.73-.74,1.48-1.46,2.2-2.21,1.15-1.2,1.15-2.72,0-3.9-1.13-1.16-2.27-2.3-3.42-3.42-1.18-1.15-2.7-1.15-3.9,0-.73,.7-1.43,1.44-2.16,2.15-1.08,1.07-2,1.21-3.3,.47-2.13-1.22-4.38-2.14-6.75-2.8-1.38-.38-1.95-1.17-1.96-2.62,0-1.04,.01-2.08,0-3.12-.03-1.58-1.14-2.68-2.72-2.7-1.61-.02-3.23-.01-4.84,0-1.65,.01-2.75,1.1-2.77,2.73-.02,1.07,0,2.13,0,3.2-.02,1.33-.63,2.14-1.92,2.5-2.39,.66-4.66,1.6-6.82,2.83-1.26,.72-2.18,.58-3.24-.46-.72-.71-1.43-1.44-2.16-2.15-1.23-1.18-2.74-1.19-3.95,0-1.13,1.11-2.26,2.23-3.37,3.37-1.19,1.21-1.19,2.73-.01,3.95,.72,.75,1.48,1.47,2.2,2.21,.99,1.01,1.12,1.94,.41,3.18-1.23,2.16-2.17,4.43-2.83,6.82-.37,1.33-1.17,1.92-2.57,1.93-1.07,.01-2.13-.01-3.2,0-1.54,.03-2.63,1.14-2.66,2.68-.02,.81,0,1.61,0,2.42Z"/>
  <path class="cls-1" d="M50,32.6c9.61,.01,17.36,7.77,17.37,17.37,0,9.63-7.82,17.44-17.43,17.39-9.62-.05-17.35-7.82-17.33-17.42,.03-9.61,7.79-17.36,17.39-17.35Zm12.68,17.36c-.01-7.03-5.69-12.69-12.71-12.68-7.03,.01-12.69,5.69-12.68,12.72,.01,7.02,5.7,12.69,12.71,12.68,7.03-.01,12.69-5.7,12.68-12.72Z"/>
</svg>