<?xml version="1.0" encoding="UTF-8"?>
<svg id="Layer_1" data-name="Layer 1" xmlns="http://www.w3.org/2000/svg" viewBox="0 0 100 100">
  <defs>
    <style>
      .cls-1 {
        fill: #ccf;
      }
    </style>
  </defs>
  <path class="cls-1" d="M49.95,90c-22.01-.07-39.88-18.04-39.83-40.05,.04-22.03,17.91-39.95,39.81-39.95,22.12,.06,39.99,18.03,39.94,40.05-.05,22.03-17.9,39.95-39.8,39.95h-.13Zm-.01-74.95c-19.22,0-34.88,15.68-34.89,34.95,0,9.3,3.63,18.07,10.25,24.7,6.61,6.62,15.38,10.27,24.67,10.27,9.38-.01,18.17-3.68,24.78-10.32,6.6-6.62,10.21-15.38,10.19-24.67-.05-19.21-15.72-34.87-34.92-34.92h-.09Z"/>
  <path class="cls-1" d="M49.95,90c-22.01-.07-39.88-18.04-39.83-40.05,.04-22.03,17.91-39.95,39.81-39.95,22.12,.06,39.99,18.03,39.94,40.05-.05,22.03-17.9,39.95-39.8,39.95h-.13Zm-.01-74.95c-19.22,0-34.88,15.68-34.89,34.95,0,9.3,3.63,18.07,10.25,24.7,6.61,6.62,15.38,10.27,24.67,10.27,9.38-.01,18.17-3.68,24.78-10.32,6.6-6.62,10.21-15.38,10.19-24.67-.05-19.21-15.72-34.87-34.92-34.92h-.09Z"/>
  <path class="cls-1" d="M50.08,67.69c-.21,0-.43-.03-.66-.09-1.02-.28-1.61-.9-1.81-1.92-.07-.35-.07-.71-.07-1.15v-22.37s-.91-.67-.91-.67l-1.06,1.2c-.56,.64-1.12,1.28-1.71,1.88-1.68,1.7-3.39,3.37-5.1,5.03-.57,.55-1.24,.84-1.93,.84-.39,0-.77-.09-1.13-.27-1.06-.54-1.62-1.57-1.41-2.63,.11-.56,.4-1.14,.75-1.48,4.36-4.34,8.76-8.64,13.16-12.93,.55-.53,1.18-.82,1.81-.82s1.24,.27,1.77,.79c4.43,4.3,8.84,8.63,13.24,12.97,.5,.49,.77,1.12,.77,1.78,0,.66-.27,1.3-.77,1.8-.49,.49-1.12,.76-1.77,.76s-1.3-.27-1.81-.77c-1.64-1.59-3.27-3.19-4.89-4.8l-2.32-2.28c-.16-.16-.94-.89-.94-.89l-.82-.78v23.82c0,.85-.1,1.53-.6,2.08-.55,.6-1.13,.89-1.79,.89Z"/>
  <path class="cls-1" d="M50.08,67.69c-.21,0-.43-.03-.66-.09-1.02-.28-1.61-.9-1.81-1.92-.07-.35-.07-.71-.07-1.15v-22.37s-.91-.67-.91-.67l-1.06,1.2c-.56,.64-1.12,1.28-1.71,1.88-1.68,1.7-3.39,3.37-5.1,5.03-.57,.55-1.24,.84-1.93,.84-.39,0-.77-.09-1.13-.27-1.06-.54-1.62-1.57-1.41-2.63,.11-.56,.4-1.14,.75-1.48,4.36-4.34,8.76-8.64,13.16-12.93,.55-.53,1.18-.82,1.81-.82s1.24,.27,1.77,.79c4.43,4.3,8.84,8.63,13.24,12.97,.5,.49,.77,1.12,.77,1.78,0,.66-.27,1.3-.77,1.8-.49,.49-1.12,.76-1.77,.76s-1.3-.27-1.81-.77c-1.64-1.59-3.27-3.19-4.89-4.8l-2.32-2.28c-.16-.16-.94-.89-.94-.89l-.82-.78v23.82c0,.85-.1,1.53-.6,2.08-.55,.6-1.13,.89-1.79,.89Z"/>
</svg>