<?xml version="1.0" encoding="UTF-8"?>
<svg id="Layer_1" data-name="Layer 1" xmlns="http://www.w3.org/2000/svg" viewBox="0 0 100 100">
  <defs>
    <style>
      .cls-1 {
        fill: #ccf;
      }
    </style>
  </defs>
  <path class="cls-1" d="M10.02,76.4c.21-.18,.44-.36,.64-.55,8.98-8.98,17.96-17.96,26.95-26.92,.44-.44,.5-.75,.26-1.32-6.21-14.8,1.78-31.8,17.14-36.42,1.73-.52,3.56-.7,5.34-1.05,.2-.04,.4-.09,.6-.13,1.3,0,2.6,0,3.91,0,1.68,.31,3.39,.51,5.04,.94,10.99,2.88,19.02,12.48,19.99,23.83,1.2,14.08-8.39,26.61-22.3,29.08-5.25,.93-10.37,.33-15.29-1.74-.49-.21-.76-.16-1.13,.22-2.61,2.65-5.26,5.26-7.87,7.92-.4,.41-.8,.57-1.36,.55-1.19-.03-2.38-.01-3.7-.01,0,1.3-.02,2.52,.01,3.73,.02,.54-.14,.92-.53,1.3-1.47,1.43-2.9,2.92-4.39,4.34-.28,.27-.75,.46-1.14,.47-1.42,.06-2.85,.02-4.33,.02,0,1.52,.03,2.92-.02,4.32-.02,.39-.2,.86-.46,1.14-1.08,1.16-2.24,2.25-3.34,3.39-.35,.36-.71,.52-1.22,.51-4.27-.02-8.54-.01-12.81-.01,0-4.53,0-9.06,0-13.59Zm23.53-10.29c2.19,0,4.25-.02,6.3,.01,.64,0,1.11-.16,1.57-.64,2.85-2.9,5.75-5.74,8.59-8.64,.58-.6,.98-.65,1.7-.25,4.75,2.67,9.81,3.58,15.2,2.64,12.07-2.09,20.37-14.14,18.03-26.21-2.88-14.88-18.98-22.8-32.4-15.78-7.36,3.85-11.41,10.13-12.08,18.46-.35,4.34,.67,8.41,2.73,12.24,.7,1.29,.69,1.29-.36,2.35-8.65,8.65-17.26,17.35-25.99,25.91-1.6,1.57-2.45,3.1-2.17,5.33,.16,1.22,.03,2.47,.03,3.76,2.26,0,4.42,0,6.57-.01,.18,0,.39-.12,.54-.24,.98-.75,1.57-1.63,1.37-2.98-.14-.97-.04-1.97-.04-2.96,0-1.01,0-2.01,0-3.14,2.01,0,3.94-.09,5.85,.03,1.4,.09,2.35-.4,3.32-1.37,.93-.93,1.33-1.84,1.25-3.14-.1-1.73-.03-3.47-.03-5.39Z"/>
  <path class="cls-1" d="M68.22,40.96c-5.12-.01-9.2-4.13-9.17-9.25,.02-5.08,4.12-9.17,9.19-9.18,5.07,0,9.25,4.17,9.24,9.24,0,5.09-4.15,9.21-9.26,9.2Zm.01-4.69c2.51,0,4.53-1.99,4.56-4.49,.03-2.49-2.07-4.6-4.57-4.58-2.49,.02-4.49,2.04-4.49,4.55,0,2.52,1.99,4.51,4.5,4.51Z"/>
</svg>