<?xml version="1.0" encoding="UTF-8"?>
<svg id="Layer_1" data-name="Layer 1" xmlns="http://www.w3.org/2000/svg" viewBox="0 0 100 100">
  <defs>
    <style>
      .cls-1 {
        fill: #ccf;
      }
    </style>
  </defs>
  <path class="cls-1" d="M50,90c-6.4,0-12.79-.03-19.19-.08-4.41-.04-8.17-3.8-8.21-8.23v-1c-.05-4.05-.09-8.23,.61-12.1,1.11-6.09,4.64-11.18,10.48-15.13,1.16-.78,2.35-1.8,2.37-3.41,.02-1.61-1.17-2.67-2.34-3.5-7.53-5.33-11.2-12.15-11.2-20.85v-1.98c-.02-1.71-.03-3.41,.02-5.12,.14-4.85,3.89-8.54,8.71-8.58,2.43-.02,4.86-.03,7.29-.03h11.38s11.4,0,11.4,0h6.86c2.77,.01,5.12,.91,6.8,2.59,1.62,1.63,2.47,3.89,2.46,6.53v1.81c0,3.45,0,7.02-.61,10.31-1.15,6.17-4.69,11.32-10.53,15.3-1.16,.79-2.36,1.82-2.37,3.4-.01,1.58,1.12,2.61,2.34,3.48,7.53,5.34,11.19,12.16,11.2,20.85v1.9c.02,1.8,.03,3.65-.04,5.46-.17,4.53-3.87,8.24-8.25,8.28-6.4,.05-12.79,.08-19.19,.08ZM32.92,15.14c-1.62,0-3.14,0-4.23,1.09-1.08,1.1-1.06,2.57-1.03,4.8v.58c.02,.69,0,1.39-.02,2.08-.04,1.91-.08,3.89,.31,5.87,1.07,5.33,4.06,9.68,8.88,12.93,2.73,1.84,4.31,4.55,4.33,7.43,.02,2.91-1.55,5.66-4.29,7.55-6.36,4.39-9.46,10.2-9.22,17.27,.04,1.16,.03,2.32,.02,3.48,0,.65-.01,1.25-.01,1.85,0,3.5,1.23,4.74,4.68,4.74h35.78c2.79,0,4.17-1.36,4.21-4.15,.02-1.25,.03-2.5,0-3.75-.02-.59-.01-1.18,0-1.78,0-1.62,.02-3.3-.35-4.99-1.13-5.21-4.15-9.53-8.97-12.82-.64-.44-1.56-1.11-2.19-1.88-1.56-1.89-2.23-4.25-1.88-6.63,.35-2.45,1.77-4.68,3.88-6.12,6.61-4.49,9.82-10.45,9.54-17.72-.04-1.09-.03-2.18-.02-3.28,0-.62,.01-1.19,.01-1.76,0-3.59-1.21-4.81-4.76-4.81h-19.08c-4.78,0-15.58-.01-15.58-.01Z"/>
</svg>