<?xml version="1.0" encoding="UTF-8"?>
<svg id="Layer_1" data-name="Layer 1" xmlns="http://www.w3.org/2000/svg" viewBox="0 0 100 100">
  <defs>
    <style>
      .cls-1 {
        fill: #ccf;
      }
    </style>
  </defs>
  <path class="cls-1" d="M76.72,90H23.28c-.12-.05-.23-.11-.35-.14-3.73-.76-6.09-2.99-7.06-6.66-.19-.72-.23-1.49-.23-2.24-.01-20.64-.01-41.29,0-61.93,0-5.09,3.74-9,8.7-9.01,13.72-.03,27.44-.01,41.17-.02,.77,0,1.42,.25,1.96,.79,5.37,5.27,10.74,10.54,16.11,15.81,.55,.54,.83,1.18,.82,1.95-.01,.68,0,1.35,0,2.03,0,16.79,0,33.58,0,50.38,0,4.36-2.65,7.78-6.76,8.8-.3,.07-.59,.16-.89,.24ZM63.34,14.69c-.41,0-.69,0-.97,0-12.5,0-25,0-37.5,0-2.93,0-4.55,1.62-4.55,4.53,0,20.52,0,41.04,0,61.56,0,2.91,1.63,4.53,4.55,4.53,16.75,0,33.49,0,50.24,0,2.98,0,4.59-1.6,4.59-4.58,0-16.35,0-32.71,0-49.06,0-.28,0-.56,0-.92-.36,0-.63,0-.91,0-3.2,0-6.41,0-9.61,0-3.52,0-5.81-2.29-5.83-5.82-.01-2.68,0-5.36,0-8.05,0-.7,0-1.4,0-2.19Zm12.45,11.38c-2.47-2.6-5.03-5.3-7.74-8.17,0,2.66-.02,5.06,.01,7.47,0,.55,.46,.7,.96,.7,1.17,0,2.34,0,3.51,0,1.18,0,2.37,0,3.26,0Z"/>
  <path class="cls-1" d="M49.76,51.88c-5.44,0-10.88,0-16.33,0-1.45,0-2.47-.91-2.53-2.21-.06-1.31,.88-2.37,2.19-2.47,.1,0,.21,0,.31,0,10.88,0,21.77,0,32.65,0,.9,0,1.64,.29,2.14,1.05,.5,.75,.55,1.56,.13,2.37-.45,.87-1.2,1.27-2.17,1.27-2.5,0-5,0-7.5,0-2.97,0-5.94,0-8.91,0Z"/>
  <path class="cls-1" d="M48.34,70.63c-4.97,0-9.95,0-14.92,0-1.71,0-2.85-1.39-2.45-2.93,.27-1.05,1.2-1.75,2.39-1.75,3.28,0,6.56,0,9.84,0,6.67,0,13.33,0,20,0,1.85,0,3.03,1.58,2.4,3.19-.37,.96-1.23,1.5-2.42,1.5-4.95,0-9.9,0-14.84,0Z"/>
  <path class="cls-1" d="M46.8,56.57c4.4,0,8.8,0,13.2,0,1.9,0,3.07,1.75,2.26,3.37-.47,.93-1.27,1.32-2.3,1.32-4.45,0-8.9,0-13.36,0-4.4,0-8.8,0-13.2,0-1.71,0-2.85-1.4-2.44-2.94,.28-1.07,1.21-1.74,2.47-1.74,4.45,0,8.9,0,13.36,0Z"/>
</svg>