<?xml version="1.0" encoding="UTF-8"?>
<svg id="Layer_1" data-name="Layer 1" xmlns="http://www.w3.org/2000/svg" viewBox="0 0 100 100">
  <defs>
    <style>
      .cls-1 {
        fill: #ccf;
      }
    </style>
  </defs>
  <path class="cls-1" d="M15.39,90c-1.79,0-2.59-.81-2.59-2.62V37.02c0-1.82,.78-2.6,2.61-2.6h12.32s0-9.78,0-9.78c0-1.37,.49-2.03,1.79-2.42,13.29-4.02,26.57-8.04,39.86-12.06,.35-.11,.69-.16,.99-.16,1.32,0,2.11,.98,2.11,2.62v21.81s12.12,0,12.12,0c1.82,0,2.6,.78,2.6,2.6v50.35c0,1.83-.77,2.62-2.59,2.62H50s-34.62,0-34.62,0Zm12.29-4.34V38.8h-10.51v46.85h10.51Zm55.21-.03V38.81h-10.34v46.82h10.34Zm-14.76-.01V15.06s-7.64,2.3-7.64,2.3c-9.35,2.82-18.7,5.65-28.06,8.45-.38,.11-.43,.19-.43,.64,.01,16.97,.01,33.94,.01,50.91v8.25s36.11,0,36.11,0Z"/>
  <path class="cls-1" d="M46.37,43.56c-1.42-.01-2.38-.88-2.39-2.15,0-1.29,.94-2.16,2.36-2.17,1.23,0,2.46-.01,3.69-.01s2.52,0,3.78,.01c1.43,0,2.4,.87,2.41,2.15,0,1.29-.98,2.17-2.47,2.18h-5.99s-1.41,0-1.41,0Z"/>
  <path class="cls-1" d="M47.8,69.33c-.48,0-.96,0-1.45,0-1.42-.02-2.37-.89-2.37-2.16,0-1.29,.95-2.16,2.38-2.16,1.25,0,2.49-.01,3.74-.01s2.49,0,3.74,.01c1.41,0,2.39,.9,2.4,2.16,0,1.25-.98,2.14-2.39,2.16-.49,0-.99,0-1.48,0h-4.56Z"/>
  <path class="cls-1" d="M46.27,52.13c-1.37-.01-2.29-.88-2.29-2.14s.92-2.13,2.29-2.13c1.26,0,2.51-.01,3.77-.01s2.58,0,3.87,.01c1.34,0,2.32,.91,2.31,2.14,0,1.23-.98,2.13-2.31,2.14-.53,0-3.86,0-3.86,0h-2.3c-.49,0-.99,0-1.48,0Z"/>
  <path class="cls-1" d="M50.12,60.72c-1.31,0-2.62,0-3.94-.02-1.3-.01-2.21-.89-2.2-2.15,0-1.23,.92-2.11,2.22-2.13,.51,0,1.02-.01,1.53-.01h4.67c.51,0,1.02,0,1.53,0,1.34,.02,2.31,.92,2.3,2.16,0,1.22-.95,2.11-2.24,2.12-1.29,.01-2.58,.02-3.87,.02Z"/>
  <path class="cls-1" d="M46.28,77.91c-1.37-.02-2.29-.88-2.3-2.14,0-1.28,.91-2.14,2.28-2.15,1.29-.01,2.57-.01,3.86-.01s2.52,0,3.78,.01c1.36,0,2.32,.89,2.32,2.13,0,1.26-.98,2.15-2.38,2.17h-6.1c-.49,0-.98,0-1.46,0Z"/>
</svg>