<svg width="40" height="40" viewBox="0 0 40 40" fill="none" xmlns="http://www.w3.org/2000/svg">
<rect width="40" height="40" rx="5" fill="#817EFF"/>
<path d="M13 19.9552C13 20.2065 13.1466 20.4829 13.4355 20.7718C13.4355 20.7718 19.1893 26.5256 21.3082 28.6403C21.572 28.9083 21.907 29.034 22.2211 28.9921C22.5017 28.9544 22.732 28.7869 22.8786 28.5273C22.9581 28.3849 23 28.2341 23 28.0792C23 27.8154 22.8869 27.5641 22.6692 27.3464C21.907 26.58 21.1407 25.8179 20.3744 25.0516L15.7806 20.4661C15.7345 20.4201 15.6884 20.3698 15.6298 20.307L15.2236 19.8715L15.5628 19.5867L15.7052 19.4737C15.7764 19.415 15.8434 19.3648 15.902 19.3062C17.9121 17.3003 19.9221 15.2903 21.928 13.2802L22.6064 12.6018C22.8157 12.3924 22.9162 12.1789 22.9162 11.9402C22.9162 11.848 22.8995 11.7517 22.8744 11.6512C22.7697 11.2911 22.5477 11.0817 22.175 10.998C21.84 10.9226 21.5595 11.0147 21.2915 11.2827L13.4397 19.1345C13.1466 19.4276 13 19.704 13 19.9552Z" fill="white"/>
</svg>
