<?xml version="1.0" encoding="UTF-8"?>
<svg id="Layer_1" data-name="Layer 1" xmlns="http://www.w3.org/2000/svg" viewBox="0 0 100 100">
  <defs>
    <style>
      .cls-1 {
        fill: #96f;
      }
    </style>
  </defs>
  <path class="cls-1" d="M77.44,81.64c-.18,4.53-3.88,8.24-8.26,8.28-6.39,.05-12.79,.08-19.19,.08s-12.79-.03-19.19-.08c-4.41-.04-8.17-3.81-8.21-8.23v-1c-.05-4.05-.09-8.23,.61-12.11,1.11-6.09,4.64-11.18,10.49-15.13,1.16-.79,2.35-1.8,2.37-3.41,.01-1.61-1.18-2.67-2.34-3.49-7.54-5.34-11.2-12.15-11.2-20.85v-1.98c-.02-1.7-.03-3.41,.02-5.12,.15-4.84,3.89-8.53,8.71-8.58,2.43-.02,4.86-.02,7.3-.02h11.38s18.25,.01,18.25,.01c2.77,.01,5.12,.9,6.8,2.59,1.62,1.63,2.47,3.89,2.46,6.53v1.8c.01,3.45,.01,7.02-.6,10.31-1.15,6.18-4.69,11.32-10.53,15.3-1.17,.79-2.36,1.82-2.37,3.4-.02,1.58,1.11,2.61,2.34,3.48,7.53,5.33,11.19,12.16,11.2,20.85v1.9c.01,1.8,.02,3.66-.04,5.47Z"/>
</svg>