<?xml version="1.0" encoding="UTF-8"?>
<svg id="Layer_1" data-name="Layer 1" xmlns="http://www.w3.org/2000/svg" viewBox="0 0 100 100">
  <defs>
    <style>
      .cls-1 {
        fill: #96f;
      }
    </style>
  </defs>
  <path class="cls-1" d="M49.94,10C28.03,10,10.17,27.92,10.12,49.95c-.04,22.01,17.83,39.98,39.84,40.05h.12c21.9,0,39.75-17.93,39.8-39.96,.05-22.02-17.82-39.98-39.94-40.04Zm-2.32,55.68c-.07-.35-.08-.71-.08-1.15v-22.38l-.91-.66-1.06,1.19c-.56,.64-1.12,1.28-1.71,1.89-1.68,1.7-3.39,3.37-5.11,5.03-.57,.55-1.23,.84-1.92,.84-.39,0-.77-.09-1.13-.27-1.07-.54-1.62-1.57-1.41-2.63,.11-.56,.4-1.14,.74-1.49,4.37-4.33,8.76-8.63,13.17-12.93,.55-.53,1.17-.81,1.81-.81s1.24,.27,1.77,.79c4.43,4.3,8.84,8.63,13.23,12.97,.5,.49,.78,1.12,.78,1.78s-.27,1.3-.77,1.79c-.49,.5-1.12,.77-1.77,.77s-1.3-.28-1.81-.77c-1.64-1.59-3.27-3.2-4.89-4.8l-2.32-2.28c-.16-.16-.94-.89-.94-.89l-.82-.77v23.81c0,.85-.1,1.54-.6,2.08-.55,.61-1.14,.9-1.79,.9-.21,0-.43-.03-.65-.09-1.02-.28-1.61-.91-1.81-1.92Z"/>
</svg>