<?xml version="1.0" encoding="UTF-8"?>
<svg id="Layer_1" data-name="Layer 1" xmlns="http://www.w3.org/2000/svg" viewBox="0 0 100 100">
  <defs>
    <style>
      .cls-1 {
        fill: #96f;
      }
    </style>
  </defs>
  <path class="cls-1" d="M57.1,36.88c.01,1.89-.72,3.67-2.06,5.01-1.34,1.34-3.12,2.08-5.04,2.08-1.91-.01-3.69-.75-5.03-2.1-1.33-1.34-2.06-3.13-2.05-5.03,.02-3.86,3.18-7.03,7.06-7.05h.04c3.9,0,7.07,3.18,7.08,7.09Z"/>
  <path class="cls-1" d="M66.09,70.27c-.82-5.47-6.34-13.17-16.08-13.17h-.11c-8.76,.05-15,6.74-15.97,13.16l-.14,.94h32.43l-.13-.93Zm0,0c-.82-5.47-6.34-13.17-16.08-13.17h-.11c-8.76,.05-15,6.74-15.97,13.16l-.14,.94h32.43l-.13-.93Zm0,0c-.82-5.47-6.34-13.17-16.08-13.17h-.11c-8.76,.05-15,6.74-15.97,13.16l-.14,.94h32.43l-.13-.93Z"/>
  <path class="cls-1" d="M89.71,22.02c-1.47-7.17-7.39-12-14.74-12.02H25.13c-8.62,.02-15.12,6.5-15.12,15.08-.02,16.61-.02,33.22,0,49.83,0,8.44,6.6,15.06,15.03,15.07,8.32,.01,16.64,.02,24.97,.02s16.64-.01,24.97-.02c8.42-.01,15.02-6.63,15.02-15.07,.02-16.62,0-33.23,0-49.84-.01-1.11-.1-2.13-.29-3.05Zm-27.96,14.95c-.02,6.42-5.3,11.64-11.75,11.64h-.05c-6.45-.02-11.69-5.3-11.68-11.76s5.28-11.71,11.74-11.71c3.14,0,6.08,1.23,8.3,3.46,2.23,2.24,3.45,5.22,3.44,8.37Zm-13.51,15.57c.56-.04,1.11-.06,1.67-.06,10.56,0,19.2,7.34,21,17.86,.14,.81,.22,1.71,.24,2.9,.02,.88-.19,1.54-.62,1.99-.44,.45-1.1,.67-1.97,.68H31.68c-1.02,0-1.75-.23-2.19-.68-.44-.44-.65-1.17-.64-2.16,.15-10.55,8.85-19.76,19.39-20.53Z"/>
</svg>