<?xml version="1.0" encoding="UTF-8"?>
<svg id="Layer_1" data-name="Layer 1" xmlns="http://www.w3.org/2000/svg" viewBox="0 0 100 100">
  <defs>
    <style>
      .cls-1 {
        fill: #96f;
      }
    </style>
  </defs>
  <path class="cls-1" d="M82.91,57.28c-.41,.02-.83,0-1.38,0v.94c0,7.67,.01,15.34,0,23.01-.01,4.19-2.68,7.58-6.69,8.52-.71,.17-1.45,.23-2.17,.23-4.07,.02-8.14,.01-12.21,.01-1.77,0-2.71-.93-2.71-2.7v-18.08c0-2.79-1.58-4.37-4.35-4.38-2.25-.01-4.49-.01-6.73,0-2.73,.01-4.32,1.6-4.32,4.34v17.92c0,2.04-.87,2.9-2.9,2.9-3.97,0-7.94,.01-11.9,0-5.25-.01-8.97-3.71-8.98-8.96-.01-7.56,0-15.13,0-22.69v-.97c-.89-.08-1.75-.08-2.58-.24-2.79-.54-4.7-2.19-5.61-4.87-.9-2.66-.35-5.09,1.46-7.24,.24-.27,.5-.53,.76-.79,10.2-10.2,20.41-20.39,30.6-30.6,1.47-1.48,2.9-2.99,4.98-3.63h3.75c1.98,.63,3.4,2.04,4.82,3.47,10.28,10.3,20.58,20.58,30.86,30.9,.7,.7,1.41,1.53,1.78,2.44,2.1,5.08-1.04,10.25-6.48,10.47Z"/>
</svg>