<?xml version="1.0" encoding="UTF-8"?>
<svg id="Layer_1" data-name="Layer 1" xmlns="http://www.w3.org/2000/svg" viewBox="0 0 100 100">
  <defs>
    <style>
      .cls-1 {
        fill: #96f;
      }
    </style>
  </defs>
  <path class="cls-1" d="M82.49,44.34c-1.06-.02-2.13,.01-3.2-.01-1.28-.02-2.1-.64-2.44-1.88-.67-2.42-1.62-4.72-2.86-6.9-.69-1.23-.55-2.15,.45-3.17,.73-.74,1.49-1.46,2.2-2.21,1.15-1.21,1.15-2.72,0-3.9-1.12-1.16-2.26-2.3-3.42-3.43-1.18-1.15-2.7-1.15-3.9,0-.73,.7-1.43,1.44-2.15,2.15-1.09,1.07-2,1.21-3.3,.47-2.13-1.22-4.38-2.14-6.75-2.8-1.38-.38-1.95-1.17-1.96-2.62,0-1.04,.01-2.08,0-3.12-.03-1.59-1.14-2.69-2.72-2.7-1.62-.02-3.23-.02-4.84,0-1.65,.01-2.75,1.1-2.77,2.73-.02,1.07,0,2.13-.01,3.2-.02,1.33-.63,2.14-1.92,2.5-2.39,.66-4.67,1.6-6.82,2.82-1.26,.72-2.19,.58-3.24-.45-.72-.71-1.43-1.45-2.16-2.15-1.22-1.18-2.74-1.19-3.95,0-1.13,1.11-2.25,2.23-3.37,3.36-1.18,1.22-1.19,2.74-.01,3.96,.73,.75,1.48,1.46,2.21,2.21,.98,1.01,1.11,1.94,.41,3.18-1.23,2.16-2.17,4.43-2.83,6.82-.36,1.33-1.17,1.92-2.57,1.93-1.06,.01-2.13-.01-3.2,.01-1.54,.03-2.63,1.14-2.66,2.68-.02,.81,0,1.61,0,2.42s-.01,1.61,0,2.42c.01,1.69,1.09,2.79,2.77,2.82,1.06,0,2.13-.01,3.2,0,1.29,.03,2.11,.63,2.45,1.88,.66,2.42,1.61,4.71,2.85,6.9,.7,1.23,.56,2.15-.44,3.17-.73,.75-1.48,1.47-2.2,2.21-1.15,1.2-1.16,2.72-.01,3.9,1.12,1.16,2.27,2.3,3.42,3.42,1.18,1.16,2.7,1.16,3.9,.02,.73-.71,1.44-1.44,2.16-2.15,1.08-1.07,1.99-1.22,3.29-.48,2.14,1.22,4.39,2.14,6.75,2.8,1.38,.39,1.96,1.17,1.97,2.62,.01,1.04-.01,2.08,.01,3.12,.02,1.58,1.13,2.69,2.72,2.71,1.61,.01,3.22,.01,4.84,0,1.67-.02,2.75-1.12,2.77-2.81,0-1.04-.01-2.09,0-3.13,.02-1.33,.62-2.14,1.92-2.5,2.39-.66,4.66-1.59,6.82-2.82,1.26-.72,2.18-.58,3.23,.45,.75,.73,1.46,1.49,2.22,2.2,1.16,1.11,2.69,1.12,3.84,.01,1.17-1.14,2.33-2.3,3.47-3.48,1.12-1.15,1.12-2.67,.01-3.84-.73-.77-1.51-1.51-2.25-2.27-.99-1.02-1.12-1.94-.41-3.18,1.23-2.16,2.16-4.43,2.82-6.82,.37-1.32,1.18-1.92,2.57-1.93,1.07-.01,2.14,.02,3.2-.01,1.54-.03,2.64-1.14,2.67-2.68,.02-1.64,.01-3.28,0-4.92-.02-1.63-1.13-2.71-2.78-2.73Zm-32.56,22.55c-9.61-.05-17.35-7.82-17.33-17.42,.03-9.61,7.8-17.36,17.39-17.35,9.61,.01,17.36,7.77,17.37,17.38,.01,9.62-7.82,17.44-17.43,17.39Zm.03-30.08c-7.03,.01-12.68,5.69-12.67,12.72,.01,7.02,5.69,12.69,12.71,12.68,7.03-.02,12.69-5.7,12.68-12.72-.02-7.04-5.69-12.7-12.72-12.68Z"/>
</svg>