<?xml version="1.0" encoding="UTF-8"?>
<svg id="Layer_1" data-name="Layer 1" xmlns="http://www.w3.org/2000/svg" viewBox="0 0 100 100">
  <defs>
    <style>
      .cls-1 {
        fill: #96f;
      }
    </style>
  </defs>
  <path class="cls-1" d="M72.79,31.79c-.02,2.49-2.05,4.49-4.55,4.48-2.52,0-4.51-1.99-4.51-4.51s2-4.53,4.49-4.55c2.5-.02,4.6,2.09,4.57,4.58Z"/>
  <path class="cls-1" d="M89.89,34.76c-.97-11.34-9-20.95-19.99-23.82-1.65-.44-3.36-.64-5.05-.94h-3.9c-.2,.04-.4,.09-.6,.13-1.79,.34-3.62,.52-5.35,1.04-15.36,4.62-23.35,21.62-17.14,36.43,.24,.57,.18,.88-.25,1.32-9,8.96-17.97,17.94-26.95,26.92-.2,.2-.43,.37-.64,.55v13.59c4.27,0,8.54,0,12.8,.02,.52,0,.87-.15,1.22-.52,1.11-1.14,2.26-2.23,3.35-3.39,.26-.28,.44-.75,.46-1.14,.05-1.4,.02-2.79,.02-4.32,1.49,0,2.91,.03,4.33-.02,.39-.02,.86-.2,1.14-.47,1.48-1.42,2.91-2.91,4.38-4.34,.39-.38,.55-.76,.53-1.3-.04-1.21-.01-2.42-.01-3.73,1.31,0,2.51-.02,3.7,.01,.56,.02,.96-.14,1.36-.55,2.61-2.65,5.26-5.26,7.87-7.91,.38-.38,.65-.43,1.14-.22,4.92,2.07,10.03,2.67,15.28,1.74,13.91-2.46,23.5-15,22.3-29.08Zm-21.67,6.2c-5.12,0-9.2-4.13-9.17-9.25,.02-5.08,4.11-9.17,9.19-9.18,5.07-.01,9.24,4.17,9.24,9.23-.01,5.09-4.15,9.21-9.26,9.2Z"/>
</svg>