<?xml version="1.0" encoding="UTF-8"?>
<svg id="Layer_1" data-name="Layer 1" xmlns="http://www.w3.org/2000/svg" viewBox="0 0 100 100">
  <defs>
    <style>
      .cls-1 {
        fill: #96f;
      }
    </style>
  </defs>
  <path class="cls-1" d="M72.55,38.81v46.81h10.33V38.81h-10.33Zm-40.12-13c-.38,.12-.43,.19-.43,.64,.02,16.97,.02,33.94,.02,50.91v8.25s36.11,0,36.11,0V15.06s-7.64,2.3-7.64,2.3c-9.35,2.82-18.7,5.65-28.06,8.45Zm21.42,52.1h-7.56c-1.37-.02-2.29-.88-2.3-2.14-.01-1.28,.91-2.15,2.28-2.16,1.29-.01,2.57-.01,3.86-.01s2.52,0,3.78,.01c1.36,.01,2.32,.89,2.32,2.13,.01,1.26-.97,2.15-2.38,2.17Zm-.01-8.59c-.49,.01-.98,.01-1.48,.01h-4.55c-.49,0-.97,0-1.45-.01-1.42-.02-2.37-.89-2.37-2.16s.95-2.16,2.37-2.17c1.25,0,2.49-.01,3.74-.01s2.49,.01,3.74,.01c1.41,.01,2.39,.9,2.39,2.17,.01,1.25-.98,2.14-2.39,2.16Zm.15-8.62c-1.29,0-2.58,.02-3.87,.02s-2.62-.01-3.93-.02c-1.31-.01-2.21-.89-2.2-2.15,.01-1.23,.92-2.1,2.22-2.13,.51,0,1.02,0,1.53,0h4.67c.5,0,1.01,0,1.52,0,1.34,.02,2.31,.93,2.3,2.16-.01,1.22-.95,2.11-2.24,2.12Zm-.07-8.58c-.53,.01-3.86,.01-3.86,.01h-2.3c-.49,0-.99,0-1.48-.01-1.37-.01-2.29-.87-2.29-2.14s.92-2.13,2.29-2.13c1.26-.01,2.51-.02,3.77-.02s2.58,.01,3.87,.02c1.34,0,2.32,.9,2.31,2.13,0,1.23-.98,2.13-2.31,2.14Zm-.15-8.56h-7.4c-1.42-.02-2.37-.88-2.38-2.15-.01-1.29,.94-2.17,2.36-2.18,1.23-.01,2.46-.01,3.7-.01s2.52,0,3.78,.01c1.43,.01,2.4,.87,2.4,2.15,.01,1.29-.98,2.17-2.46,2.18ZM17.17,85.65h10.51V38.8h-10.51v46.85Z"/>
</svg>