<?xml version="1.0" encoding="UTF-8"?>
<svg id="Layer_1" data-name="Layer 1" xmlns="http://www.w3.org/2000/svg" viewBox="0 0 100 100">
  <defs>
    <style>
      .cls-1 {
        fill: #96f;
      }
    </style>
  </defs>
  <path class="cls-1" d="M68.06,25.37c-.03-2.41-.01-4.81-.01-7.47,2.72,2.87,5.28,5.57,7.75,8.17h-3.27c-1.17,0-2.34-.01-3.51,0-.49,0-.95-.15-.96-.7Z"/>
  <path class="cls-1" d="M78.78,30.75c-3.2,0-6.41,.01-9.61,0-3.52-.01-5.81-2.29-5.83-5.82-.01-2.68,0-5.36,0-8.05v-2.19H24.86c-2.92,0-4.55,1.62-4.55,4.53v61.56c0,2.91,1.63,4.53,4.56,4.53h50.23c2.98,0,4.59-1.61,4.59-4.58V30.75h-.91Zm-13.18,38.37c-.37,.96-1.22,1.5-2.42,1.5h-14.84c-4.97,0-9.95,.01-14.92,0-1.71,0-2.85-1.39-2.45-2.93,.27-1.05,1.19-1.75,2.39-1.75,3.28,0,6.56,0,9.84,0,6.67,0,13.34,0,20,0,1.86,0,3.03,1.58,2.4,3.18Zm-34.63-10.81c.28-1.08,1.21-1.75,2.47-1.75h13.36c4.4,0,8.8-.01,13.2,0,1.9,.01,3.07,1.76,2.26,3.37-.47,.94-1.27,1.32-2.29,1.32h-13.36c-4.4,0-8.8,0-13.2-.01-1.7,0-2.85-1.39-2.44-2.93Zm37.37-7.71c-.45,.87-1.2,1.27-2.17,1.27-2.5,.01-5,0-7.5,0h-8.9c-5.44,0-10.89,.01-16.33,0-1.45,0-2.47-.9-2.53-2.21-.06-1.31,.88-2.37,2.19-2.47h.31c10.89,0,21.77,0,32.66,0,.9,0,1.64,.3,2.14,1.05,.5,.76,.55,1.57,.13,2.37Z"/>
</svg>