<?xml version="1.0" encoding="UTF-8"?>
<svg id="Layer_1" data-name="Layer 1" xmlns="http://www.w3.org/2000/svg" viewBox="0 0 100 100">
  <defs>
    <style>
      .cls-1 {
        fill: #96f;
      }
    </style>
  </defs>
  <path class="cls-1" d="M64.49,27.27c-.05-1.33-.03-2.66-.02-4.09,0-.66,.01-1.33,.01-2.04v-2.15l12.96,14.57-2.01-.14c-.36-.03-.72-.04-1.08-.04-.43,0-.85,.02-1.27,.03-.42,0-.83,.02-1.24,.02-1.11,0-2.42-.08-3.71-.7-2.28-1.09-3.54-2.98-3.64-5.46Z"/>
  <path class="cls-1" d="M74.16,38.33c-1,0-1.98,0-2.97-.01-5.84-.07-10.41-3.77-11.38-9.21-.31-1.7-.3-3.52-.29-5.28,.01-.71,.01-1.42,0-2.12-.03-1.33-.02-2.65-.02-4.03v-2.73s-16.53,.03-19.42,.03c-4.29,0-8.58-.02-12.88-.07h-.1c-2.08,0-3.87,.69-5.16,2-1.31,1.31-2.03,3.17-2.02,5.23,.09,18.46,.09,37.21,0,55.72-.01,2.05,.71,3.91,2.01,5.22s3.07,2,5.12,2c6.91-.04,13.76-.05,20.62-.05h25.23c4.52,.01,7.11-2.57,7.11-7.08V38.32h-5.85Zm-11.51,16.32c-.99,1.05-2.02,2.07-3.05,3.08,0,0-7.73,7.73-10.05,10.04-.78,.78-1.48,1.15-2.15,1.15s-1.36-.37-2.13-1.13c-1.91-1.9-3.82-3.81-5.72-5.72-.62-.62-.96-1.36-.96-2.08,.01-.62,.26-1.19,.73-1.65,.46-.45,1.03-.68,1.64-.68,.71,0,1.44,.32,2.03,.91,.86,.85,1.7,1.71,2.58,2.61l1.8,1.84,3.64-3.65c2.65-2.64,5.24-5.23,7.82-7.84,.7-.71,1.32-1.02,2.02-1.02,1.18,.05,1.88,.52,2.28,1.44,.44,1.02,.29,1.9-.48,2.7Z"/>
</svg>