<svg width="221" height="161" viewBox="0 0 221 161" fill="none" xmlns="http://www.w3.org/2000/svg">
<g opacity="0.5">
<path d="M213.852 181.235C216.1 179.932 217.967 178.06 219.264 175.808C220.562 173.557 221.245 171.003 221.246 168.404V70.1544C221.245 67.5554 220.562 65.0022 219.264 62.7504C217.967 60.4986 216.1 58.6272 213.852 57.3236L191.763 44.555C191.014 44.1262 190.166 43.9011 189.303 43.9021C188.44 43.9031 187.592 44.1301 186.844 44.5607C186.096 44.9912 185.474 45.6102 185.04 46.3559C184.606 47.1017 184.374 47.9483 184.369 48.8112V90.0995C184.365 90.9648 184.134 91.8138 183.699 92.5617C183.264 93.3096 182.64 93.9302 181.89 94.3612C181.14 94.7922 180.289 95.0185 179.424 95.0176C178.559 95.0166 177.709 94.7884 176.96 94.3557L151.484 79.6143C150.263 78.9094 149.25 77.8947 148.546 76.6729C147.842 75.451 147.474 74.0652 147.477 72.6553V23.6468C147.467 22.2373 147.093 20.8543 146.391 19.6321C145.688 18.41 144.682 17.3903 143.469 16.6722L118.056 1.99294C115.808 0.687551 113.254 0 110.654 0C108.055 0 105.501 0.687551 103.253 1.99294L77.7774 16.6722C76.5541 17.3785 75.5393 18.3956 74.8355 19.6204C74.1317 20.8452 73.764 22.2342 73.7698 23.6468V68.6942C73.7704 71.295 74.4553 73.8499 75.7559 76.1021C77.0565 78.3543 78.927 80.2245 81.1794 81.5249L158.521 126.184C166.396 130.727 172.937 137.263 177.485 145.135C182.033 153.007 184.429 161.938 184.431 171.03V189.67C184.432 190.535 184.66 191.384 185.094 192.133C185.527 192.881 186.149 193.502 186.899 193.934C187.648 194.365 188.498 194.592 189.363 194.59C190.228 194.589 191.077 194.36 191.825 193.926L213.852 181.235Z" fill="#4FC3F4"/>
<path d="M143.468 221.886C144.692 221.18 145.707 220.163 146.41 218.938C147.114 217.713 147.482 216.324 147.476 214.912V170.998C147.471 168.4 146.785 165.849 145.488 163.598C144.191 161.347 142.327 159.475 140.082 158.168L62.7247 113.508C54.8412 108.961 48.2963 102.414 43.7501 94.5301C39.2038 86.6457 36.8169 77.702 36.8301 68.6009V48.8732C36.831 48.0061 36.6031 47.1541 36.1691 46.4034C35.7351 45.6527 35.1107 45.0299 34.3588 44.598C33.6069 44.1661 32.7542 43.9405 31.8871 43.9438C31.02 43.9471 30.1691 44.1793 29.4205 44.617L7.39401 57.3235C5.14771 58.6294 3.28285 60.5014 1.9855 62.7526C0.688156 65.0039 0.00363399 67.5559 0 70.1542V168.466C0.00363399 171.065 0.688156 173.617 1.9855 175.868C3.28285 178.119 5.14771 179.991 7.39401 181.297L29.4827 194.066C30.2321 194.498 31.082 194.727 31.9472 194.728C32.8125 194.729 33.6627 194.502 34.413 194.071C35.1633 193.64 35.7873 193.02 36.2224 192.272C36.6575 191.524 36.8885 190.675 36.8923 189.81V149.842C36.8882 148.975 37.1135 148.123 37.5455 147.371C37.9776 146.62 38.6009 145.996 39.352 145.564C40.1032 145.132 40.9553 144.906 41.822 144.91C42.6887 144.913 43.5389 145.146 44.2863 145.585L69.7614 160.265C70.9848 160.971 71.9998 161.988 72.7036 163.213C73.4074 164.438 73.7749 165.827 73.769 167.239V215.036C73.7787 216.446 74.1529 217.829 74.8552 219.051C75.5574 220.273 76.5638 221.292 77.7766 222.011L103.252 236.69C105.5 237.995 108.054 238.683 110.654 238.683C113.253 238.683 115.807 237.995 118.055 236.69L143.468 221.886Z" fill="#817EFF"/>
</g>
</svg>
