<svg width="146" height="188" viewBox="0 0 146 188" fill="none" xmlns="http://www.w3.org/2000/svg">
<g opacity="0.5">
<path d="M137.852 130.235C140.1 128.932 141.967 127.06 143.264 124.808C144.562 122.557 145.245 120.003 145.246 117.404V19.1544C145.245 16.5554 144.562 14.0022 143.264 11.7504C141.967 9.49856 140.1 7.62718 137.852 6.32362L115.763 -6.445C115.014 -6.87381 114.166 -7.09891 113.303 -7.09791C112.44 -7.09691 111.592 -6.86985 110.844 -6.43932C110.096 -6.00879 109.474 -5.38981 109.04 -4.64405C108.606 -3.89829 108.374 -3.05175 108.369 -2.18877V39.0995C108.365 39.9648 108.134 40.8138 107.699 41.5617C107.264 42.3096 106.64 42.9302 105.89 43.3612C105.14 43.7922 104.289 44.0185 103.424 44.0176C102.559 44.0166 101.709 43.7884 100.96 43.3557L75.4845 28.6143C74.2634 27.9094 73.2498 26.8947 72.5462 25.6729C71.8425 24.451 71.4736 23.0652 71.4767 21.6553V-27.3532C71.467 -28.7627 71.093 -30.1457 70.3907 -31.3679C69.6885 -32.59 68.682 -33.6097 67.4691 -34.3278L42.0561 -49.0071C39.8078 -50.3124 37.2542 -51 34.6544 -51C32.0545 -51 29.5009 -50.3124 27.2526 -49.0071L1.77744 -34.3278C0.554085 -33.6215 -0.460713 -32.6044 -1.1645 -31.3796C-1.86828 -30.1548 -2.23598 -28.7658 -2.23016 -27.3532V17.6942C-2.22964 20.295 -1.5447 22.8499 -0.244086 25.1021C1.05653 27.3543 2.92705 29.2245 5.1794 30.5249L82.5213 75.184C90.3963 79.7271 96.9367 86.2632 101.485 94.1352C106.033 102.007 108.429 110.938 108.431 120.03V138.67C108.432 139.535 108.66 140.384 109.094 141.133C109.527 141.881 110.149 142.502 110.899 142.934C111.648 143.365 112.498 143.592 113.363 143.59C114.228 143.589 115.077 143.36 115.825 142.926L137.852 130.235Z" fill="#4FC3F4"/>
<path d="M67.4683 170.886C68.6917 170.18 69.7067 169.163 70.4105 167.938C71.1143 166.713 71.4818 165.324 71.4759 163.912V119.998C71.4707 117.4 70.7856 114.849 69.4884 112.598C68.1912 110.347 66.3274 108.475 64.0821 107.168L-13.2753 62.5085C-21.1587 57.9606 -27.7036 51.4144 -32.2499 43.5301C-36.7961 35.6457 -39.183 26.702 -39.1698 17.6008V-2.12685C-39.1689 -2.99396 -39.3969 -3.8459 -39.8309 -4.59659C-40.2648 -5.34728 -40.8893 -5.9701 -41.6411 -6.402C-42.393 -6.83391 -43.2457 -7.05956 -44.1128 -7.05624C-44.9799 -7.05291 -45.8308 -6.8207 -46.5794 -6.38304L-68.6059 6.32343C-70.8522 7.62938 -72.7171 9.50133 -74.0144 11.7526C-75.3118 14.0039 -75.9963 16.5559 -75.9999 19.1542V117.466C-75.9963 120.065 -75.3118 122.617 -74.0144 124.868C-72.7171 127.119 -70.8522 128.991 -68.6059 130.297L-46.5172 143.066C-45.7679 143.498 -44.918 143.727 -44.0527 143.728C-43.1875 143.729 -42.3372 143.502 -41.5869 143.071C-40.8366 142.64 -40.2127 142.02 -39.7776 141.272C-39.3425 140.524 -39.1114 139.675 -39.1076 138.809V98.8416C-39.1118 97.9749 -38.8864 97.1225 -38.4544 96.3712C-38.0224 95.6199 -37.399 94.9964 -36.6479 94.564C-35.8968 94.1317 -35.0446 93.9059 -34.1779 93.9097C-33.3113 93.9134 -32.461 94.1465 -31.7136 94.5853L-6.2385 109.265C-5.01514 109.971 -4.00015 110.988 -3.29637 112.213C-2.59258 113.438 -2.22507 114.827 -2.2309 116.239V164.036C-2.22121 165.446 -1.84702 166.829 -1.14476 168.051C-0.442513 169.273 0.563828 170.292 1.7767 171.011L27.2518 185.69C29.5002 186.995 32.0538 187.683 34.6536 187.683C37.2534 187.683 39.8071 186.995 42.0554 185.69L67.4683 170.886Z" fill="#817EFF"/>
</g>
</svg>
