<svg width="25" height="25" viewBox="0 0 25 25" fill="none" xmlns="http://www.w3.org/2000/svg">
<path fill-rule="evenodd" clip-rule="evenodd" d="M0 8.83854V22.9492C0.080032 23.3493 0.195078 23.7345 0.445178 24.0646C0.940377 24.7149 1.61064 25 2.41597 25H13.1102H21.4886C22.459 25 23.2093 24.5949 23.6295 23.7045C23.7845 23.3794 23.8395 22.9892 23.8696 22.6241C23.8976 22.2846 23.8913 21.9426 23.885 21.5999C23.8823 21.4529 23.8796 21.3057 23.8796 21.1585C23.8796 20.6733 23.6595 20.4582 23.1793 20.4582C22.7571 20.4582 22.3354 20.4587 21.9141 20.4593C21.0727 20.4604 20.2327 20.4615 19.3928 20.4582C17.1719 20.4432 15.3862 19.0126 14.886 16.8568C14.3057 14.3708 16.1115 11.7497 18.6325 11.4296C19.0576 11.3696 19.4928 11.3696 19.923 11.3696H23.1243C23.6695 11.3696 23.8796 11.1595 23.8796 10.6193C23.8787 10.5099 23.8781 10.4004 23.8775 10.2909C23.8749 9.79871 23.8723 9.30445 23.8395 8.81353C23.7795 7.88816 22.9692 7.02781 22.0438 6.88776C21.8538 6.85775 21.7437 6.78272 21.6487 6.61765C21.3335 6.06409 21.0156 5.51219 20.6977 4.96029C20.0619 3.85653 19.4261 2.75276 18.8125 1.63565C18.3523 0.805322 17.7921 0.155062 16.8017 0H16.2165C15.1406 0.398624 14.1716 0.993789 13.2026 1.58898C12.7976 1.83774 12.3926 2.08651 11.9798 2.32093C10.4366 3.19793 8.90656 4.09173 7.37699 4.98523C6.40279 5.55431 5.4288 6.12326 4.45178 6.68768C4.30672 6.76771 4.12165 6.81273 3.95158 6.81773C3.45638 6.83274 2.96119 6.83774 2.46599 6.81773C1.17547 6.76771 0.17507 7.64306 0.02501 8.79852C0.02501 8.80864 0.0181884 8.81648 0.0106777 8.82512C0.00704875 8.82929 0.00325896 8.83365 0 8.83854ZM6.71857 6.69217C9.7795 4.90662 12.8404 3.12108 15.9064 1.34054C16.5316 0.980393 17.1319 1.11044 17.517 1.70068C17.4879 1.71885 17.4609 1.73636 17.4348 1.7532C17.3891 1.78274 17.3465 1.81025 17.3019 1.83574C14.5158 3.46139 11.7247 5.08704 8.93358 6.70268C8.80352 6.77271 8.64346 6.81773 8.4984 6.81773C8.02858 6.82519 7.55875 6.82431 7.06199 6.82337C6.89237 6.82306 6.7196 6.82273 6.54262 6.82273C6.58155 6.79404 6.61041 6.77123 6.63402 6.75258C6.66803 6.72569 6.69111 6.70744 6.71769 6.69268L6.71857 6.69217ZM17.21 5.82835C17.8812 5.43741 18.5474 5.0494 19.2227 4.65686C19.4119 4.98912 19.599 5.31605 19.7864 5.64356C20.0052 6.02604 20.2245 6.4093 20.4482 6.80272H15.5362C16.1027 6.4732 16.658 6.14979 17.21 5.82835ZM23.1993 12.5H21.2235H21.2135V12.545C20.965 12.545 20.7156 12.5377 20.4661 12.5304C19.9169 12.5143 19.3675 12.4981 18.8275 12.56C17.0868 12.7551 15.8563 14.2907 15.9164 16.0964C15.9714 17.7621 17.3569 19.2177 19.0526 19.2927C20.4582 19.3528 21.8688 19.3427 23.2743 19.3127C24.3447 19.2927 25.005 18.5624 25.005 17.482V14.3107C25.005 13.2253 24.2847 12.505 23.1993 12.5ZM18.1873 15.9064C18.1923 15.2811 18.7025 14.7809 19.3277 14.7809V14.7759C19.953 14.7809 20.4582 15.2911 20.4582 15.9114C20.4532 16.5316 19.938 17.0418 19.3177 17.0418C18.6975 17.0418 18.1873 16.5266 18.1873 15.9064Z" fill="#817EFF"/>
</svg>
