<?xml version="1.0" encoding="UTF-8"?>
<svg id="Layer_1" data-name="Layer 1" xmlns="http://www.w3.org/2000/svg" viewBox="0 0 100 100">
  <defs>
    <style>
      .cls-1 {
        fill: #fff;
      }
    </style>
  </defs>
  <path class="cls-1" d="M39.95,83.37c-4.76,0-9.52,.17-14.26-.04-6.45-.29-10.27-4.22-10.73-10.65-.38-5.31,.7-10.25,3.91-14.58,3.06-4.13,7.32-6.26,12.34-6.8,2.65-.29,5.34-.22,8.01-.24,4.16-.03,8.34-.13,12.49,.06,4.55,.21,8.44,2.15,11.74,5.29,.5,.47,.62,.96,.29,1.58-.42,.79-.75,1.64-1.24,2.39-.24,.37-.72,.74-1.14,.82-1.49,.3-3,.45-4.5,.7-2.73,.45-4.64,1.98-5.55,4.59-.92,2.64-.39,5.06,1.55,7.1,1.05,1.1,2.17,2.13,3.27,3.18,.45,.42,.62,.87,.49,1.5-.26,1.26-.43,2.55-.68,3.82-.23,1.18-.53,1.39-1.72,1.39-4.76,0-9.51,0-14.27,0,0-.03,0-.07,0-.1Z"/>
  <path class="cls-1" d="M41.83,43.83c-7.85-.01-14.35-6.53-14.33-14.37,.02-7.96,6.48-14.47,14.34-14.46,8.04,0,14.5,6.45,14.5,14.46,0,7.92-6.51,14.38-14.51,14.37Z"/>
  <path class="cls-1" d="M62.53,75.84c-.21-.32-.43-.84-.8-1.2-1.54-1.52-3.11-3.01-4.69-4.49-.56-.53-.87-1.12-.62-1.88,.24-.74,.86-.99,1.56-1.09,2.12-.29,4.23-.62,6.35-.87,.96-.12,1.58-.54,2-1.43,.87-1.83,1.82-3.61,2.71-5.43,.35-.71,.86-1.2,1.68-1.2,.82,0,1.33,.49,1.68,1.2,.92,1.86,1.89,3.7,2.8,5.57,.39,.8,.99,1.16,1.84,1.27,2.15,.28,4.29,.59,6.43,.89,.71,.1,1.33,.35,1.56,1.09,.24,.76-.05,1.35-.62,1.88-1.54,1.44-3.04,2.93-4.59,4.36-.69,.64-.93,1.31-.74,2.25,.4,1.98,.71,3.98,1.06,5.98,.14,.77,.02,1.46-.67,1.95-.65,.46-1.31,.38-1.98,.02-1.82-.95-3.66-1.85-5.46-2.83-.91-.5-1.71-.49-2.62,0-1.77,.97-3.59,1.86-5.39,2.8-.7,.36-1.38,.5-2.06,0-.7-.52-.79-1.23-.64-2.04,.4-2.18,.77-4.37,1.2-6.8Z"/>
</svg>