<svg width="31" height="30" viewBox="0 0 31 30" fill="none" xmlns="http://www.w3.org/2000/svg">
<path fill-rule="evenodd" clip-rule="evenodd" d="M11.5523 12.3555C8.18591 12.3555 5.40158 9.55315 5.40758 6.19875C5.41958 2.79034 8.18591 0 11.5583 0C15.0027 0 17.7691 2.76633 17.7751 6.19875C17.7751 9.59515 14.9847 12.3615 11.5583 12.3555H11.5523ZM10.7482 29.3075C10.1203 29.3075 9.49233 29.3143 8.86456 29.3212C7.45265 29.3365 6.04163 29.3518 4.63349 29.2895C1.86715 29.1635 0.228956 27.4833 0.0309318 24.723C-0.131088 22.4487 0.330968 20.3304 1.71113 18.4702C3.02529 16.7 4.84951 15.7879 6.99777 15.5539C7.93636 15.4545 8.88728 15.4539 9.83693 15.4532C10.0348 15.453 10.2326 15.4529 10.4302 15.4519C10.8115 15.4493 11.1931 15.4451 11.5748 15.4409L11.5754 15.4408H11.5754C12.9777 15.4254 14.3821 15.4098 15.7828 15.4759C17.7331 15.5659 19.4013 16.4 20.8174 17.7441C21.0335 17.9482 21.0815 18.1522 20.9434 18.4222C20.8775 18.5475 20.8164 18.6751 20.7555 18.8025C20.6499 19.0231 20.5447 19.2429 20.4154 19.4483C20.3134 19.6104 20.1093 19.7664 19.9233 19.8024C19.548 19.8767 19.1684 19.9302 18.7884 19.9837C18.5244 20.0209 18.2603 20.0581 17.9971 20.1024C16.827 20.2944 16.0049 20.9485 15.6208 22.0707C15.2248 23.2048 15.4528 24.2369 16.2869 25.113C16.6399 25.4849 17.0114 25.8346 17.384 26.1853L17.3841 26.1854C17.4864 26.2817 17.5889 26.3782 17.6911 26.4752C17.8831 26.6552 17.9551 26.8472 17.9011 27.1173C17.8391 27.4106 17.7896 27.7075 17.74 28.0051C17.6982 28.2553 17.6564 28.506 17.607 28.7555C17.505 29.2595 17.379 29.3495 16.869 29.3495H10.7542V29.3075H10.7482ZM20.4205 26.0778C20.394 26.037 20.3669 25.9888 20.3378 25.9372C20.2688 25.8146 20.1888 25.6726 20.0793 25.5631C19.4193 24.909 18.7472 24.2729 18.0691 23.6368C17.8291 23.4088 17.6971 23.1568 17.8051 22.8327C17.9071 22.5147 18.1711 22.4067 18.4772 22.3647C18.736 22.3287 18.9949 22.2917 19.2538 22.2547C19.901 22.1623 20.5483 22.0698 21.1955 21.9926C21.6095 21.9446 21.8736 21.7586 22.0536 21.3806C22.2705 20.9257 22.4997 20.4749 22.7292 20.0234C22.8933 19.7006 23.0576 19.3775 23.2177 19.0523C23.3677 18.7463 23.5898 18.5362 23.9378 18.5362C24.2918 18.5362 24.5079 18.7463 24.6579 19.0523C24.8246 19.3882 24.9945 19.7221 25.1645 20.056C25.3983 20.5154 25.6322 20.975 25.858 21.4406C26.0261 21.7826 26.2781 21.9386 26.6441 21.9806C27.2562 22.0606 27.8683 22.146 28.4803 22.2313C28.7864 22.274 29.0924 22.3167 29.3985 22.3587C29.7045 22.4007 29.9685 22.5087 30.0705 22.8267C30.1726 23.1508 30.0465 23.4028 29.8065 23.6308C29.5236 23.8957 29.244 24.1639 28.9644 24.4321C28.5917 24.7897 28.2189 25.1473 27.8383 25.4971C27.5442 25.7671 27.4362 26.0611 27.5202 26.4632C27.6441 27.0699 27.7468 27.6766 27.8497 28.2855C27.8914 28.5318 27.9331 28.7784 27.9763 29.0255C28.0363 29.3555 27.9823 29.6556 27.6883 29.8596C27.4122 30.0576 27.1302 30.0216 26.8362 29.8716C26.5363 29.7147 26.2346 29.5614 25.9333 29.4082C25.4506 29.163 24.9687 28.918 24.4959 28.6594C24.1058 28.4434 23.7638 28.4494 23.3737 28.6594C22.9021 28.9157 22.4235 29.1605 21.9451 29.4051C21.6506 29.5558 21.3562 29.7064 21.0635 29.8596C20.7634 30.0156 20.4694 30.0756 20.1814 29.8596C19.8813 29.6376 19.8393 29.3315 19.9053 28.9895C20.0126 28.4125 20.113 27.8355 20.2178 27.2333C20.2828 26.8599 20.3495 26.4767 20.4205 26.0778Z" fill="#817EFF"/>
</svg>
