<svg width="15" height="15" viewBox="0 0 15 15" fill="none" xmlns="http://www.w3.org/2000/svg">
<circle cx="7.5" cy="7.5" r="7.5" fill="#817EFF"/>
<g clip-path="url(#clip0_56_15073)">
<path d="M10.5002 10.2648C10.4942 10.2792 10.487 10.2924 10.4822 10.3068C10.4066 10.5036 10.1678 10.5624 10.0105 10.4232C9.99493 10.4088 9.97932 10.3932 9.96492 10.3776C9.16076 9.5736 8.3578 8.7708 7.55484 7.9668C7.53803 7.95 7.52843 7.9284 7.51283 7.9056C7.48282 7.9344 7.46602 7.95 7.44922 7.9656C6.64025 8.7744 5.83129 9.5832 5.02113 10.392C4.90951 10.5036 4.77628 10.5288 4.65506 10.4616C4.49422 10.374 4.45222 10.1676 4.56384 10.0248C4.58184 10.002 4.60345 9.9816 4.62385 9.9612C5.42441 9.1608 6.22497 8.3592 7.02673 7.5588C7.04473 7.5408 7.06514 7.5252 7.09034 7.5048C7.06874 7.482 7.05314 7.4652 7.03753 7.4496C6.22617 6.6396 5.41601 5.8296 4.60465 5.0196C4.51103 4.926 4.47382 4.818 4.51943 4.6896C4.55664 4.5876 4.63825 4.5348 4.73427 4.5H4.8519C4.93831 4.5276 5.00193 4.5852 5.06434 4.6488C5.8589 5.4444 6.65466 6.24 7.44922 7.0356C7.46482 7.0512 7.47322 7.0764 7.48402 7.0968C7.49362 7.0932 7.50203 7.0896 7.51163 7.0872C7.52723 7.0668 7.54163 7.0452 7.55964 7.0284C8.3518 6.2352 9.14515 5.4432 9.93731 4.65C9.99973 4.5876 10.0633 4.5288 10.1498 4.5012H10.2674C10.3874 4.5384 10.4642 4.6176 10.5014 4.7352V4.8528C10.4738 4.9404 10.4126 5.0052 10.349 5.0688C9.55444 5.862 8.75988 6.6564 7.96652 7.4496C7.95092 7.4652 7.93531 7.482 7.91371 7.5048C7.93531 7.524 7.95452 7.5384 7.97132 7.554C8.76228 8.3448 9.55324 9.1368 10.3454 9.9264C10.4102 9.9912 10.4726 10.0572 10.5014 10.1472V10.2648H10.5002Z" fill="white"/>
</g>
<defs>
<clipPath id="clip0_56_15073">
<rect width="6" height="6" fill="white" transform="translate(4.5 4.5)"/>
</clipPath>
</defs>
</svg>
