<svg width="165" height="127" viewBox="0 0 165 127" fill="none" xmlns="http://www.w3.org/2000/svg">
<path d="M165 29.5223V114.205C164.924 114.358 164.798 114.485 164.772 114.637C163.583 121.745 157.331 126.948 149.662 126.923C104.887 126.872 60.0874 126.923 15.3129 126.872C6.17579 126.872 0 120.526 0 111.388C0 79.4538 0 47.52 0 15.5861C0 6.34615 6.2011 0.0507692 15.4395 0.0253846C32.7773 0 50.115 0.0253846 67.4528 0C68.9462 0 69.9586 0.507692 70.8951 1.65C74.641 6.21923 78.5136 10.7123 82.2595 15.2815C83.0948 16.2969 83.93 16.6523 85.2462 16.6523C106.659 16.6015 128.097 16.6015 149.51 16.6523C154.294 16.6523 158.394 18.2769 161.583 22.0338C163.456 24.2423 164.317 26.8315 165 29.5477V29.5223Z" fill="#F7F9FB"/>
</svg>
