<svg width="40" height="40" viewBox="0 0 40 40" fill="none" xmlns="http://www.w3.org/2000/svg">
<circle cx="20" cy="20" r="20" fill="#DFDFFF"/>
<path fill-rule="evenodd" clip-rule="evenodd" d="M30.6604 17.5091V11.3384V11.3344C30.4844 10.8385 30.1245 10.6665 29.6046 10.6665C27.8231 10.6785 26.0438 10.677 24.2634 10.6755C23.6698 10.675 23.076 10.6745 22.482 10.6745C21.8181 10.6745 21.4942 10.9944 21.4942 11.6503V17.1932C21.4942 17.8491 21.8181 18.169 22.482 18.169C23.3728 18.1705 24.2631 18.1703 25.1533 18.1701H25.1533H25.1533C26.6368 18.1698 28.1199 18.1695 29.6046 18.177C30.1245 18.181 30.4844 18.009 30.6604 17.5091ZM22.1501 30.6663H29.9925C30.3244 30.5543 30.5444 30.3343 30.6564 30.0024V20.5163C30.4924 20.0084 30.1325 19.8364 29.6126 19.8364C28.021 19.8418 26.4313 19.84 24.8409 19.8382C24.0455 19.8373 23.25 19.8364 22.454 19.8364C22.1381 19.8364 21.8421 19.8964 21.6742 20.1804C21.5742 20.3523 21.5022 20.5683 21.5022 20.7642C21.4942 23.7556 21.4942 26.747 21.4942 29.7384C21.4942 30.2104 21.7262 30.5023 22.1501 30.6663ZM19.1823 30.6664H11.3359C10.84 30.4904 10.664 30.1305 10.668 29.6106C10.6782 28.4425 10.6771 27.2761 10.6759 26.1092C10.6752 25.4423 10.6746 24.7753 10.676 24.1077C10.676 23.5118 11.012 23.1719 11.6038 23.1719H18.9224C19.4903 23.1719 19.8382 23.5078 19.8422 24.0797C19.8449 25.341 19.844 26.604 19.8431 27.8664V27.8668C19.8426 28.4977 19.8422 29.1283 19.8422 29.7586C19.8422 30.0145 19.7822 30.2545 19.5823 30.4265C19.5039 30.494 19.4128 30.5433 19.3212 30.5928C19.2772 30.6166 19.2332 30.6405 19.1903 30.6664H19.1823ZM10.676 11.6342V16.0853V16.0893V20.5604C10.676 21.1723 11.004 21.5042 11.6118 21.5042H18.8904C19.5023 21.5042 19.8342 21.1763 19.8342 20.5684V11.6262C19.8342 11.0063 19.4943 10.6784 18.8744 10.6784H11.6358C11.004 10.6784 10.676 11.0063 10.676 11.6342Z" fill="#817EFF"/>
</svg>
