<svg width="35" height="30" viewBox="0 0 35 30" fill="none" xmlns="http://www.w3.org/2000/svg">
<path fill-rule="evenodd" clip-rule="evenodd" d="M17.5191 5.928C17.531 2.64601 14.909 0.00600692 11.633 1.0219e-05C8.38107 -0.00598649 5.72903 2.62802 5.72305 5.874C5.71707 9.13201 8.33304 11.766 11.5971 11.79C14.843 11.814 17.507 9.17401 17.5191 5.928ZM34.5111 19.518C34.2831 20.136 33.9171 20.592 33.2151 20.676C32.8191 20.724 32.4591 20.622 32.135 20.388C31.9977 20.2873 31.8603 20.1881 31.7165 20.0841C31.5779 19.9837 31.4333 19.8789 31.2771 19.764V20.19V27.708C31.2771 29.124 30.4071 29.994 28.9851 29.994H26.8611C26.7907 29.994 26.7204 29.9899 26.6417 29.9853C26.586 29.982 26.5262 29.9785 26.4591 29.976V29.556V23.22C26.4591 22.32 26.1051 21.966 25.2231 21.966H23.435C22.763 21.972 22.367 22.374 22.367 23.046V29.55V29.988H21.299H19.7511C18.4251 29.976 17.549 29.088 17.5431 27.744C17.5391 26.0678 17.5404 24.3889 17.5417 22.7109C17.5424 21.8722 17.5431 21.0338 17.5431 20.196V19.764C17.427 19.8466 17.32 19.9234 17.2182 19.9965L17.2067 20.0048C17.0393 20.125 16.8855 20.2355 16.7271 20.346C15.989 20.868 15.101 20.76 14.6031 20.088C14.093 19.398 14.2431 18.504 14.987 17.964C17.8191 15.9 20.651 13.842 23.489 11.784C24.0771 11.358 24.7071 11.34 25.307 11.772C28.1811 13.854 31.0551 15.936 33.911 18.042C34.0952 18.1771 34.2152 18.3932 34.3357 18.6102C34.3648 18.6625 34.3939 18.7149 34.4239 18.7662C34.4519 18.8141 34.4807 18.861 34.5111 18.906V19.512V19.518ZM18.1131 14.364C17.7708 14.6122 17.429 14.8594 17.0878 15.1063C16.1667 15.7727 15.2497 16.4362 14.3391 17.106C13.1631 17.97 12.875 19.464 13.6551 20.622C14.2011 21.432 14.981 21.804 15.9591 21.756C16.0649 21.7519 16.168 21.7396 16.2776 21.7264C16.3296 21.7202 16.3831 21.7138 16.4391 21.708V24.012H16.067H1.06107C0.215057 24.012 -0.0909734 23.652 0.0110774 22.806C0.479034 18.942 2.33908 15.912 5.70505 13.974C9.79703 11.622 13.9251 11.772 17.969 14.214C17.9791 14.22 17.9891 14.226 17.9989 14.2323C18.0082 14.2382 18.0173 14.2443 18.026 14.2509C18.0316 14.255 18.037 14.2593 18.0421 14.2638C18.0459 14.2671 18.0495 14.2705 18.0531 14.274C18.0631 14.2807 18.0694 14.291 18.0792 14.3072C18.087 14.3201 18.0971 14.3367 18.1131 14.358V14.364Z" fill="#817EFF"/>
</svg>
