<?xml version="1.0" encoding="UTF-8"?>
<svg id="Layer_1" data-name="Layer 1" xmlns="http://www.w3.org/2000/svg" viewBox="0 0 100 100">
  <defs>
    <style>
      .cls-1 {
        fill: #fff;
      }
    </style>
  </defs>
  <path class="cls-1" d="M90.26,60.54c-.53,1.44-1.39,2.51-3.03,2.71-.93,.11-1.76-.12-2.52-.67-.63-.46-1.25-.91-2.01-1.45v1c0,5.85,0,11.69,0,17.54,0,3.3-2.03,5.33-5.35,5.34-1.65,0-3.3,0-4.95,0-.28,0-.56-.02-.94-.04,0-.36,0-.67,0-.97,0-4.93,0-9.86,0-14.78,0-2.09-.82-2.92-2.89-2.92-1.39,0-2.78-.01-4.17,0-1.57,.02-2.49,.95-2.49,2.51,0,5.06,0,10.12,0,15.18,0,.31,0,.62,0,1.03-.89,0-1.69,0-2.49,0-1.21,0-2.41,.01-3.62,0-3.09-.03-5.14-2.1-5.15-5.23-.01-5.87,0-11.74,0-17.62,0-.28,0-.56,0-1-.72,.52-1.31,.94-1.9,1.36-1.72,1.22-3.8,.96-4.96-.61-1.19-1.61-.84-3.69,.9-4.96,6.61-4.82,13.22-9.62,19.84-14.42,1.38-1,2.85-1.03,4.24-.03,6.71,4.85,13.41,9.71,20.08,14.62,.62,.46,.94,1.33,1.4,2.01v1.42Z"/>
  <path class="cls-1" d="M52.01,48.52c-2.96,2.15-5.9,4.26-8.81,6.4-2.74,2.02-3.42,5.5-1.6,8.21,1.27,1.89,3.09,2.76,5.37,2.65,.36-.02,.72-.07,1.12-.11v5.38c-.31,0-.59,0-.87,0-11.67,0-23.34,0-35.01,0-1.98,0-2.68-.84-2.44-2.81,1.1-9.02,5.43-16.08,13.28-20.61,9.54-5.49,19.19-5.13,28.62,.56,.07,.04,.13,.08,.19,.14,.04,.03,.06,.08,.14,.2Z"/>
  <path class="cls-1" d="M36.88,15c7.64,.02,13.76,6.18,13.74,13.83-.02,7.57-6.24,13.73-13.82,13.68-7.61-.05-13.73-6.21-13.71-13.8,.02-7.58,6.2-13.73,13.79-13.71Z"/>
</svg>