<svg width="12" height="15" viewBox="0 0 12 15" fill="none" xmlns="http://www.w3.org/2000/svg">
<g clip-path="url(#clip0_140_10197)">
<path d="M6.00569 0C6.30269 0.048 6.60269 0.084 6.89669 0.15C9.06569 0.636 10.7997 2.496 11.1627 4.686C11.3757 5.979 11.1447 7.209 10.6737 8.409C10.1127 9.834 9.28469 11.1 8.33669 12.294C7.62869 13.185 6.85769 14.022 6.02369 14.796C5.73269 15.066 5.51369 15.069 5.22269 14.796C3.65069 13.314 2.27069 11.682 1.22069 9.783C0.668687 8.784 0.248687 7.734 0.0716867 6.594C-0.426313 3.396 1.73069 0.594 4.66769 0.087C4.85969 0.054 5.05169 0.027 5.24369 0C5.49869 0 5.75069 0 6.00569 0ZM8.74769 5.532C8.67269 3.792 7.23569 2.433 5.54069 2.499C3.79769 2.568 2.43269 4.011 2.49869 5.712C2.56769 7.446 4.01669 8.817 5.70569 8.745C7.45169 8.673 8.81969 7.227 8.74769 5.529V5.532Z" fill="#817EFF"/>
</g>
<defs>
<clipPath id="clip0_140_10197">
<rect width="11.244" height="15" fill="white"/>
</clipPath>
</defs>
</svg>
