<svg width="40" height="40" viewBox="0 0 40 40" fill="none" xmlns="http://www.w3.org/2000/svg">
<circle cx="20" cy="20" r="20" fill="#DFDFFF"/>
<path fill-rule="evenodd" clip-rule="evenodd" d="M9.46691 12.1167L9.46691 12.1167C9.3866 12.1344 9.30351 12.1528 9.21627 12.1715H9.21289C9.26023 12.2205 9.29652 12.2592 9.32749 12.2922C9.36058 12.3275 9.38759 12.3563 9.4155 12.3842C11.6198 14.5975 13.8256 16.8094 16.0329 19.0227L16.0339 19.0236L16.0343 19.0241L16.0348 19.0246C17.1339 20.1267 18.2334 21.2292 19.3333 22.3324C19.7858 22.7883 20.2315 22.7883 20.6908 22.3256L20.6943 22.3221C23.9923 19.014 27.2903 15.7059 30.5883 12.4011C30.6277 12.3617 30.6847 12.3397 30.7418 12.3178C30.7677 12.3079 30.7936 12.2979 30.8179 12.2863C30.8061 12.261 30.7934 12.2357 30.7807 12.2103C30.7681 12.185 30.7554 12.1597 30.7436 12.1343C30.6406 12.1206 30.5377 12.1031 30.4347 12.0856C30.2101 12.0475 29.9855 12.0094 29.7609 12.0094C23.2538 12.0027 16.7466 12.0027 10.2394 12.0027C10.2165 12.0027 10.1934 12.0019 10.1701 12.0012C10.1076 11.9991 10.0443 11.9971 9.98281 12.0094C9.81446 12.0398 9.64772 12.0767 9.46691 12.1167ZM8.13507 13.4115C8.09166 13.548 8.04663 13.6895 8 13.8294V13.8328V27.0531C8.07091 27.2591 8.13845 27.4651 8.18573 27.6103C10.5181 25.2974 12.841 22.9971 15.1757 20.6852L15.4425 20.421L8.19248 13.2317C8.17367 13.2902 8.15453 13.3504 8.13507 13.4115ZM9.25338 28.6806L9.25449 28.6795C9.58395 28.8463 9.91681 28.8798 10.2631 28.8798H29.7339C29.7614 28.8798 29.7892 28.8806 29.817 28.8813L29.8172 28.8813H29.8172C29.8917 28.8833 29.9665 28.8853 30.0378 28.8731C30.1886 28.845 30.338 28.8102 30.5019 28.7719L30.5019 28.7719L30.5022 28.7719C30.595 28.7502 30.6926 28.7274 30.7976 28.7042C28.4017 26.3281 26.0539 24.0032 23.6979 21.6703L23.5137 21.4879C23.5012 21.5005 23.4834 21.5171 23.4625 21.5366C23.433 21.5642 23.3974 21.5975 23.3618 21.6331C23.2099 21.7859 23.0582 21.9395 22.9064 22.0931C22.4879 22.5168 22.0683 22.9415 21.6396 23.3553C21.4404 23.5478 21.2141 23.7301 20.9676 23.8517C20.1065 24.2806 19.1104 24.0948 18.4046 23.3958C17.9783 22.974 17.5535 22.5507 17.1397 22.1384L17.1395 22.1382C16.924 21.9235 16.7116 21.7118 16.5034 21.5048C14.086 23.8952 11.6753 26.2823 9.25449 28.6795L9.25 28.6772L9.25338 28.6806ZM28.0102 23.8812C29.2778 25.1373 30.5502 26.3981 31.8337 27.671C31.852 27.5776 31.8746 27.4856 31.8971 27.3945C31.9453 27.199 31.9924 27.0079 31.9924 26.8167C32.0025 22.5686 32.0025 18.3206 31.9924 14.0725C31.9924 13.8752 31.9418 13.6763 31.8939 13.4882C31.8729 13.4059 31.8525 13.3257 31.8371 13.2486L24.5566 20.4581C25.707 21.5989 26.8566 22.7381 28.0102 23.8812Z" fill="#817EFF"/>
</svg>
