<svg width="40" height="40" viewBox="0 0 40 40" fill="none" xmlns="http://www.w3.org/2000/svg">
<circle cx="20" cy="20" r="20" fill="#DFDFFF"/>
<g clip-path="url(#clip0_140_11341)">
<path d="M16.136 10.667C16.496 10.747 16.832 10.879 17.092 11.155C17.388 11.467 17.536 11.835 17.548 12.267C17.572 13.147 17.648 14.019 17.856 14.879C17.944 15.239 18.056 15.591 18.144 15.951C18.276 16.487 18.144 16.959 17.808 17.395C17.244 18.119 16.696 18.855 16.148 19.591C16.116 19.635 16.112 19.727 16.14 19.775C17.136 21.643 18.44 23.239 20.236 24.395C20.66 24.671 21.104 24.919 21.532 25.187C21.632 25.251 21.7 25.235 21.788 25.167C22.532 24.595 23.276 24.027 24.024 23.467C24.424 23.167 24.876 23.091 25.356 23.199C25.932 23.331 26.5 23.511 27.08 23.611C27.64 23.707 28.216 23.779 28.784 23.779C29.7 23.779 30.444 24.175 30.664 25.199V29.263C30.664 29.263 30.64 29.295 30.636 29.315C30.52 30.083 29.844 30.687 28.96 30.671C27.66 30.647 26.376 30.519 25.108 30.239C22.816 29.735 20.696 28.823 18.756 27.503C16.36 25.871 14.444 23.795 13.02 21.267C11.46 18.487 10.688 15.495 10.668 12.311C10.668 11.915 10.788 11.559 11.044 11.247C11.312 10.919 11.672 10.759 12.072 10.667H16.136Z" fill="#817EFF"/>
</g>
<defs>
<clipPath id="clip0_140_11341">
<rect width="19.996" height="20" fill="white" transform="translate(10.668 10.667)"/>
</clipPath>
</defs>
</svg>
