<svg width="110" height="119" viewBox="0 0 110 119" fill="none" xmlns="http://www.w3.org/2000/svg">
<path d="M106.106 89.9229C107.221 89.2761 108.147 88.3476 108.791 87.2304C109.435 86.1131 109.774 84.8462 109.774 83.5567V34.8083C109.774 33.5188 109.435 32.252 108.791 31.1347C108.147 30.0174 107.221 29.0889 106.106 28.4421L95.1459 22.1067C94.7743 21.894 94.3535 21.7823 93.9253 21.7828C93.4971 21.7833 93.0765 21.8959 92.7054 22.1096C92.3343 22.3232 92.0257 22.6303 91.8102 23.0003C91.5947 23.3703 91.4799 23.7904 91.4773 24.2185V44.7044C91.4754 45.1337 91.3609 45.555 91.145 45.9261C90.9291 46.2972 90.6195 46.6051 90.2472 46.8189C89.875 47.0328 89.453 47.1451 89.0237 47.1446C88.5944 47.1441 88.1728 47.0309 87.801 46.8162L75.1611 39.502C74.5552 39.1522 74.0523 38.6488 73.7031 38.0426C73.354 37.4363 73.171 36.7487 73.1725 36.0492V11.7328C73.1677 11.0334 72.9821 10.3472 72.6337 9.74082C72.2853 9.13443 71.7859 8.62852 71.1841 8.27221L58.575 0.988834C57.4595 0.34114 56.1924 0 54.9025 0C53.6125 0 52.3455 0.34114 51.23 0.988834L38.59 8.27221C37.983 8.62264 37.4795 9.12728 37.1303 9.73498C36.7811 10.3427 36.5987 11.0319 36.6016 11.7328V34.0838C36.6019 35.3742 36.9417 36.6419 37.587 37.7594C38.2323 38.8769 39.1604 39.8048 40.278 40.45L78.6525 62.6084C82.5598 64.8625 85.8049 68.1055 88.0616 72.0113C90.3183 75.9172 91.5069 80.3483 91.5081 84.8592V94.108C91.5085 94.5371 91.6218 94.9585 91.8368 95.3299C92.0517 95.7013 92.3606 96.0095 92.7325 96.2236C93.1044 96.4376 93.526 96.55 93.9551 96.5493C94.3842 96.5487 94.8056 96.435 95.1768 96.2198L106.106 89.9229Z" fill="#4FC3F4"/>
<path d="M71.1843 110.093C71.7913 109.743 72.2949 109.238 72.6441 108.63C72.9933 108.023 73.1756 107.333 73.1727 106.632V84.844C73.1701 83.555 72.8302 82.2891 72.1865 81.1722C71.5429 80.0553 70.6182 79.1264 69.5041 78.4778L31.1219 56.3195C27.2104 54.063 23.9631 50.815 21.7073 46.903C19.4516 42.991 18.2674 38.5535 18.2739 34.0378V24.2495C18.2744 23.8193 18.1612 23.3966 17.9459 23.0241C17.7306 22.6517 17.4208 22.3426 17.0477 22.1283C16.6746 21.914 16.2516 21.8021 15.8213 21.8037C15.3911 21.8054 14.9689 21.9206 14.5975 22.1377L3.66866 28.4423C2.55413 29.0903 1.62884 30.0191 0.985141 31.1361C0.341441 32.2531 0.00180307 33.5193 0 34.8085V83.5878C0.00180307 84.877 0.341441 86.1432 0.985141 87.2602C1.62884 88.3772 2.55413 89.306 3.66866 89.954L14.6284 96.2893C15.0002 96.504 15.4218 96.6172 15.8512 96.6177C16.2805 96.6182 16.7023 96.5059 17.0746 96.292C17.4469 96.0782 17.7565 95.7703 17.9724 95.3992C18.1882 95.0281 18.3029 94.6068 18.3048 94.1775V74.3468C18.3027 73.9167 18.4145 73.4938 18.6289 73.121C18.8432 72.7483 19.1525 72.4389 19.5252 72.2244C19.8979 72.0099 20.3207 71.8979 20.7507 71.8997C21.1807 71.9016 21.6026 72.0172 21.9734 72.2349L34.6133 79.5183C35.2203 79.8687 35.7239 80.3734 36.0731 80.9811C36.4223 81.5888 36.6047 82.278 36.6018 82.9789V106.694C36.6066 107.393 36.7923 108.08 37.1407 108.686C37.4891 109.292 37.9884 109.798 38.5902 110.155L51.2302 117.438C52.3457 118.086 53.6127 118.427 54.9027 118.427C56.1926 118.427 57.4596 118.086 58.5752 117.438L71.1843 110.093Z" fill="#817EFF"/>
</svg>
