<svg width="180" height="40" viewBox="0 0 180 40" fill="none" xmlns="http://www.w3.org/2000/svg">
<path d="M35.8386 30.3725C36.2154 30.1541 36.5282 29.8405 36.7457 29.4631C36.9632 29.0857 37.0777 28.6578 37.0778 28.2223V11.7569C37.0777 11.3214 36.9632 10.8935 36.7457 10.5161C36.5282 10.1387 36.2154 9.82512 35.8386 9.60666L32.1368 7.46681C32.0113 7.39495 31.8692 7.35723 31.7246 7.35739C31.5799 7.35756 31.4379 7.39561 31.3125 7.46776C31.1872 7.53992 31.0829 7.64365 31.0102 7.76863C30.9374 7.89361 30.8986 8.03547 30.8977 8.1801V15.0995C30.8971 15.2445 30.8584 15.3867 30.7855 15.5121C30.7126 15.6374 30.608 15.7414 30.4822 15.8137C30.3565 15.8859 30.214 15.9238 30.069 15.9237C29.924 15.9235 29.7816 15.8852 29.656 15.8127L25.3867 13.3423C25.1821 13.2241 25.0122 13.0541 24.8943 12.8493C24.7764 12.6446 24.7145 12.4123 24.7151 12.176V3.96288C24.7134 3.72667 24.6508 3.49489 24.5331 3.29008C24.4154 3.08526 24.2467 2.91438 24.0434 2.79404L19.7846 0.33399C19.4078 0.115224 18.9798 0 18.5441 0C18.1084 0 17.6805 0.115224 17.3037 0.33399L13.0344 2.79404C12.8294 2.9124 12.6593 3.08285 12.5414 3.28811C12.4234 3.49337 12.3618 3.72615 12.3628 3.96288V11.5122C12.3629 11.9481 12.4777 12.3762 12.6956 12.7537C12.9136 13.1311 13.2271 13.4445 13.6045 13.6625L26.566 21.1467C27.8857 21.9081 28.9818 23.0034 29.744 24.3227C30.5062 25.6419 30.9077 27.1386 30.9081 28.6622V31.7861C30.9082 31.931 30.9465 32.0734 31.0191 32.1988C31.0917 32.3243 31.1961 32.4283 31.3217 32.5007C31.4473 32.573 31.5897 32.6109 31.7346 32.6107C31.8796 32.6105 32.0219 32.5721 32.1473 32.4994L35.8386 30.3725Z" fill="#4FC3F4"/>
<path d="M24.0433 37.185C24.2484 37.0667 24.4184 36.8962 24.5364 36.6909C24.6543 36.4857 24.7159 36.2529 24.715 36.0162V28.6569C24.7141 28.2215 24.5992 27.7939 24.3819 27.4167C24.1645 27.0394 23.8521 26.7257 23.4758 26.5066L10.5118 19.0224C9.19065 18.2602 8.0938 17.1631 7.33191 15.8418C6.57002 14.5205 6.17001 13.0217 6.17222 11.4965V8.19036C6.17238 8.04505 6.13417 7.90227 6.06145 7.77647C5.98872 7.65066 5.88407 7.54629 5.75807 7.4739C5.63206 7.40152 5.48916 7.36371 5.34385 7.36426C5.19853 7.36482 5.05593 7.40374 4.93048 7.47708L1.23914 9.60651C0.862687 9.82537 0.55016 10.1391 0.332743 10.5164C0.115326 10.8937 0.000609007 11.3213 0 11.7568V28.2326C0.000609007 28.668 0.115326 29.0957 0.332743 29.473C0.55016 29.8502 0.862687 30.164 1.23914 30.3828L4.94091 32.5227C5.06648 32.5952 5.20891 32.6334 5.35392 32.6336C5.49893 32.6337 5.64142 32.5958 5.76715 32.5236C5.89289 32.4513 5.99746 32.3473 6.07038 32.222C6.14329 32.0967 6.18201 31.9544 6.18265 31.8094V25.1113C6.18196 24.9661 6.21972 24.8232 6.29212 24.6973C6.36452 24.5714 6.46899 24.4669 6.59486 24.3944C6.72074 24.322 6.86356 24.2841 7.0088 24.2848C7.15404 24.2854 7.29653 24.3245 7.42178 24.398L11.6911 26.858C11.8961 26.9764 12.0662 27.1469 12.1841 27.3521C12.3021 27.5574 12.3637 27.7902 12.3627 28.0269V36.037C12.3643 36.2732 12.427 36.505 12.5447 36.7098C12.6624 36.9146 12.831 37.0855 13.0343 37.2058L17.3036 39.6659C17.6804 39.8847 18.1083 39.9999 18.544 39.9999C18.9797 39.9999 19.4077 39.8847 19.7845 39.6659L24.0433 37.185Z" fill="#817EFF"/>
<path d="M89.6485 28.6955C89.0537 29.3123 88.3407 29.8028 87.5521 30.1378C86.7635 30.4729 85.9156 30.6455 85.0588 30.6455C84.2019 30.6455 83.3539 30.4729 82.5653 30.1378C81.7768 29.8028 81.0638 29.3123 80.469 28.6955C79.8525 28.072 79.3685 27.3302 79.0462 26.5148C78.7239 25.6993 78.57 24.827 78.5938 23.9505C78.5707 23.0811 78.7251 22.2162 79.0476 21.4085C79.37 20.6008 79.8536 19.8672 80.469 19.2527C81.0632 18.635 81.776 18.1435 82.5647 17.8079C83.3533 17.4722 84.2016 17.2992 85.0588 17.2992C85.9159 17.2992 86.7641 17.4722 87.5528 17.8079C88.3415 18.1435 89.0543 18.635 89.6485 19.2527C90.2613 19.8689 90.743 20.6028 91.0646 21.4102C91.3862 22.2176 91.541 23.0817 91.5198 23.9505C91.5478 25.7174 90.875 27.4234 89.6485 28.6955ZM93.5011 15.7538C91.318 13.5051 88.5084 12.3808 85.0725 12.3808C81.6366 12.3808 78.8113 13.5051 76.5967 15.7538C75.5243 16.8274 74.6808 18.1073 74.1173 19.5161C73.5538 20.925 73.2818 22.4335 73.318 23.9505C73.318 27.2449 74.4109 29.9968 76.5967 32.2061C78.7825 34.4155 81.6077 35.5241 85.0725 35.532C88.5084 35.532 91.318 34.4234 93.5011 32.2061C95.6344 29.9959 96.8266 27.044 96.8266 23.9721C96.8266 20.9003 95.6344 17.9484 93.5011 15.7381V15.7538Z" fill="#000047"/>
<path d="M104.335 4.15668H100.672C100.231 4.15668 99.8735 4.51397 99.8735 4.95472V34.1719C99.8735 34.6126 100.231 34.9699 100.672 34.9699H104.335C104.776 34.9699 105.133 34.6126 105.133 34.1719V4.95472C105.133 4.51397 104.776 4.15668 104.335 4.15668Z" fill="#000047"/>
<path d="M124.55 28.7269C123.94 29.3448 123.214 29.8353 122.413 30.1701C121.611 30.505 120.752 30.6774 119.884 30.6774C119.015 30.6774 118.156 30.505 117.355 30.1701C116.554 29.8353 115.827 29.3448 115.217 28.7269C114.035 27.4146 113.398 25.7006 113.436 23.9347C113.403 22.1837 114.04 20.486 115.217 19.1897C115.81 18.5489 116.534 18.0421 117.338 17.7031C118.143 17.3642 119.011 17.2008 119.884 17.224C120.757 17.1964 121.626 17.3578 122.432 17.697C123.237 18.0363 123.96 18.5454 124.55 19.1897C125.764 20.4668 126.421 22.1733 126.378 23.9347C126.426 25.7108 125.768 27.4336 124.55 28.7269ZM126.252 13.7567V15.7537C125.376 14.7037 124.277 13.8608 123.036 13.2858C121.795 12.7107 120.442 12.4178 119.074 12.4279C117.613 12.3896 116.16 12.6589 114.809 13.2183C113.459 13.7778 112.241 14.6148 111.235 15.6751C109.175 17.8137 108.145 20.546 108.145 23.8718C108.145 27.1977 109.175 29.9771 111.235 32.1903C112.226 33.2756 113.439 34.1345 114.792 34.7085C116.144 35.2824 117.605 35.5579 119.074 35.5162C120.436 35.542 121.788 35.264 123.029 34.7023C124.271 34.1406 125.372 33.3094 126.252 32.269V34.1914C126.252 34.3999 126.335 34.5999 126.483 34.7473C126.63 34.8948 126.83 34.9776 127.039 34.9776H130.455C130.663 34.9776 130.863 34.8948 131.011 34.7473C131.158 34.5999 131.241 34.3999 131.241 34.1914V13.7488C131.241 13.5403 131.158 13.3403 131.011 13.1928C130.863 13.0454 130.663 12.9626 130.455 12.9626H127.039C126.935 12.9626 126.832 12.9831 126.736 13.0231C126.64 13.0632 126.553 13.1218 126.48 13.1956C126.407 13.2695 126.349 13.3571 126.31 13.4534C126.271 13.5497 126.251 13.6527 126.252 13.7567Z" fill="#000047"/>
<path d="M149.435 29.6469C148.387 30.2722 147.188 30.6011 145.967 30.5983C145.107 30.6233 144.251 30.4668 143.455 30.1389C142.659 29.8111 141.941 29.3193 141.348 28.6955C140.744 28.0651 140.272 27.3211 139.958 26.5065C139.644 25.6919 139.495 24.8231 139.52 23.9505C139.491 23.0731 139.641 22.199 139.962 21.3819C140.283 20.5647 140.768 19.8219 141.387 19.1989C142.005 18.5759 142.744 18.086 143.559 17.7593C144.374 17.4325 145.247 17.2758 146.125 17.2988C147.205 17.2794 148.273 17.536 149.226 18.0444C150.18 18.5528 150.988 19.2961 151.573 20.204C151.683 20.3662 151.85 20.4815 152.04 20.5273C152.231 20.5732 152.432 20.5462 152.603 20.4517L155.552 18.8792C155.648 18.83 155.733 18.7615 155.802 18.6779C155.871 18.5943 155.921 18.4975 155.951 18.3934C155.98 18.2894 155.988 18.1804 155.974 18.0732C155.959 17.966 155.923 17.863 155.866 17.7706C154.986 16.2247 153.709 14.9421 152.167 14.0555C150.298 12.977 148.173 12.4217 146.015 12.4476C142.553 12.4476 139.712 13.53 137.492 15.6949C135.306 17.8649 134.197 20.6129 134.197 23.9505C134.197 27.2881 135.274 30.0675 137.444 32.2062C139.615 34.3448 142.457 35.4534 145.846 35.4534C147.983 35.4802 150.089 34.9374 151.947 33.8809C153.468 33.034 154.759 31.829 155.709 30.3703C155.77 30.2804 155.811 30.179 155.831 30.0723C155.851 29.9657 155.848 29.8561 155.823 29.7505C155.799 29.6449 155.752 29.5455 155.687 29.4587C155.622 29.3719 155.54 29.2994 155.446 29.2459L152.509 27.528C152.334 27.4244 152.126 27.3928 151.928 27.4397C151.73 27.4867 151.558 27.6085 151.448 27.7796C150.932 28.5507 150.242 29.1902 149.435 29.6469Z" fill="#000047"/>
<path d="M162.734 21.8433C163.01 20.4213 163.758 19.1342 164.857 18.1912C165.961 17.2809 167.358 16.8031 168.789 16.8467C170.189 16.8091 171.555 17.2876 172.626 18.1912C173.694 19.1267 174.369 20.4311 174.516 21.8433H162.734ZM179.702 23.4984C179.702 20.0939 178.672 17.3931 176.612 15.4275C174.552 13.4618 171.945 12.4279 168.777 12.4279C165.388 12.4279 162.64 13.5208 160.501 15.7066C158.363 17.8924 157.333 20.5932 157.333 23.9622C157.322 25.419 157.565 26.8665 158.052 28.2395C158.524 29.5797 159.244 30.8188 160.175 31.8916C161.207 33.0405 162.489 33.9375 163.922 34.5138C165.619 35.19 167.434 35.5189 169.26 35.4808C172.449 35.5403 175.58 34.6255 178.235 32.8587C178.402 32.7449 178.52 32.5727 178.566 32.3762C178.612 32.1796 178.582 31.9731 178.483 31.7973L177.143 29.411C177.092 29.3159 177.022 29.2323 176.938 29.1653C176.854 29.0982 176.757 29.0492 176.653 29.0212C176.549 28.9931 176.441 28.9868 176.334 29.0024C176.228 29.0181 176.125 29.0554 176.034 29.1122C174.059 30.3297 171.78 30.9635 169.461 30.9402C167.621 30.9402 166.123 30.4881 164.983 29.58C163.811 28.6526 163.013 27.3336 162.734 25.865H178.813C179.01 25.8658 179.2 25.7927 179.346 25.6602C179.491 25.5278 179.582 25.3455 179.6 25.1495C179.663 24.6 179.697 24.0475 179.702 23.4944V23.4984Z" fill="#000047"/>
<path d="M55.3992 28.9275L55.3206 28.8842C55.3505 28.8907 55.3778 28.9057 55.3992 28.9275ZM66.0136 19.1268C64.905 18.5647 63.7178 18.0182 62.4362 17.5032L59.2676 16.0369C57.6164 15.1917 56.787 14.1459 56.787 12.8683C56.7752 12.4249 56.8697 11.9851 57.0625 11.5857C57.2554 11.1863 57.541 10.8389 57.8956 10.5724C58.7465 9.95821 59.7799 9.64929 60.8283 9.69574C62.0264 9.71222 63.2077 9.98009 64.2957 10.482C65.2209 10.8783 66.0667 11.4391 66.792 12.1371C66.9378 12.276 67.1251 12.3635 67.3252 12.3862C67.5253 12.4089 67.7274 12.3656 67.9007 12.2629C68.6201 11.8383 69.823 11.1543 70.6958 10.655C70.8151 10.5861 70.9178 10.492 70.9969 10.3792C71.0759 10.2664 71.1293 10.1377 71.1533 10.0021C71.1772 9.86643 71.1712 9.7272 71.1356 9.59414C71.1001 9.46108 71.0358 9.33743 70.9474 9.23186C70.33 8.50628 69.6383 7.84746 68.8835 7.26623C66.623 5.42246 63.9065 4.51434 60.7379 4.51434C57.754 4.51434 55.3678 5.34384 53.5555 6.9989C52.6717 7.75051 51.9662 8.68934 51.4903 9.74736C51.0143 10.8054 50.7798 11.956 50.8036 13.1159C50.8036 16.2059 52.3761 18.659 55.5211 20.4989C56.665 21.1281 57.8466 21.6861 59.0592 22.1696C60.5728 22.7633 61.5556 23.1682 62.0234 23.3883C63.8986 24.3082 64.8185 25.4483 64.8185 26.7889C64.8219 27.278 64.7071 27.7607 64.484 28.196C64.2609 28.6313 63.936 29.0063 63.5369 29.2892C62.5782 29.9838 61.4137 30.3355 60.2308 30.2877C58.8492 30.3026 57.4823 30.0042 56.2326 29.415L55.2184 28.8371C54.315 28.237 53.5145 27.4949 52.8478 26.6395C52.7109 26.4561 52.5106 26.3304 52.286 26.2868C52.0614 26.2432 51.8286 26.2848 51.6331 26.4036C50.8979 26.8243 49.7736 27.4808 48.9637 27.9486C48.8526 28.0142 48.756 28.1016 48.6796 28.2056C48.6032 28.3096 48.5486 28.428 48.5192 28.5536C48.4898 28.6793 48.4862 28.8096 48.5085 28.9367C48.5309 29.0638 48.5787 29.185 48.6492 29.2931C49.0423 29.871 49.5102 30.4961 49.8286 30.901C50.8878 32.2126 52.2199 33.2777 53.7324 34.0224C55.7079 35.0139 57.8907 35.5219 60.101 35.5045C63.2696 35.5045 65.8498 34.6671 67.8417 32.9924C68.8072 32.2132 69.5801 31.222 70.1003 30.0957C70.6205 28.9693 70.8741 27.7382 70.8412 26.498C70.9316 23.2468 69.308 20.7976 65.9979 19.1268H66.0136Z" fill="#000047"/>
</svg>
