<svg width="13" height="18" viewBox="0 0 13 18" fill="none" xmlns="http://www.w3.org/2000/svg">
<path opacity="0.75" fill-rule="evenodd" clip-rule="evenodd" d="M0.768377 6.99163H6.34318L6.34673 6.98807H8.2892H12.0176C12.4409 6.98807 12.7611 6.67144 12.6864 6.29078C12.6544 6.12001 12.5477 5.94569 12.4232 5.82117C10.9517 4.34116 9.47338 2.86342 7.99553 1.38614C7.62612 1.01687 7.25673 0.647631 6.88749 0.27839C6.5175 -0.0951601 6.18664 -0.0916025 5.81309 0.281948C3.97024 2.1248 2.12739 3.96765 0.28454 5.81406C0.267938 5.83184 0.250546 5.84924 0.233153 5.86663C0.198367 5.90141 0.163581 5.9362 0.13512 5.97415C-0.13526 6.31924 0.0177183 6.82442 0.437518 6.95605C0.540689 6.98807 0.658091 6.99163 0.768377 6.99163ZM11.9003 10.7983H6.3468L6.35391 10.7947H2.46543H0.6795C0.39489 10.7947 0.177875 10.9157 0.0640311 11.179C-0.0569282 11.4529 0.0142243 11.6948 0.220567 11.9047L0.30595 11.9901L5.80248 17.4866C6.20093 17.8851 6.51401 17.8851 6.91957 17.4795L12.4019 11.9972C12.4118 11.9873 12.4218 11.9774 12.4319 11.9674C12.4726 11.9273 12.5142 11.8863 12.5513 11.8407C12.7114 11.6379 12.7541 11.4102 12.6438 11.1718C12.5371 10.9406 12.3521 10.8196 12.0995 10.7983H11.9003Z" fill="#A8C5DA"/>
</svg>
