<svg width="100" height="100" viewBox="0 0 100 100" fill="none" xmlns="http://www.w3.org/2000/svg">
<circle opacity="0.15" cx="50" cy="50" r="50" fill="#00B549"/>
<g clip-path="url(#clip0_9_1390)">
<path d="M26 52.4529C26.301 51.9979 26.539 51.4729 26.931 51.1159C27.722 50.3879 28.947 50.4089 29.808 51.0599C30.004 51.2069 30.186 51.3819 30.361 51.5569C33.784 54.9799 37.207 58.3959 40.63 61.8259C40.763 61.9589 40.868 62.1129 41.085 62.3719C41.253 62.1339 41.351 61.9519 41.491 61.8119C50.766 52.5159 60.062 43.2269 69.351 33.9309C70.072 33.2099 70.87 32.8109 71.899 33.0909C73.551 33.5319 74.202 35.5129 73.138 36.8499C73.005 37.0179 72.851 37.1789 72.697 37.3329C62.792 47.2379 52.887 57.1429 42.982 67.0479C41.981 68.0489 40.917 68.2729 39.881 67.6779C39.615 67.5239 39.377 67.3139 39.16 67.0969C35.065 63.0089 30.97 58.9279 26.896 54.8119C26.511 54.4199 26.294 53.8599 26 53.3769C26 53.0689 26 52.7539 26 52.4459L26 52.4529Z" fill="#00B549"/>
</g>
<defs>
<clipPath id="clip0_9_1390">
<rect width="47.656" height="35" fill="white" transform="translate(26 33)"/>
</clipPath>
</defs>
</svg>
