<svg width="31" height="30" viewBox="0 0 31 30" fill="none" xmlns="http://www.w3.org/2000/svg">
<g clip-path="url(#clip0_140_10297)">
<path d="M29.958 13.656C29.964 12.828 29.442 12.618 28.866 12.552C28.476 12.504 28.068 12.444 27.696 12.306C25.572 11.514 24.918 8.71803 26.454 7.03803C26.538 6.94803 26.628 6.85204 26.712 6.75604C27.012 6.41404 27.042 5.98804 26.76 5.63404C26.076 4.76404 25.296 3.97804 24.432 3.28204C24.048 2.96404 23.61 2.99404 23.226 3.37204C22.536 4.05004 21.714 4.39804 20.748 4.40404C19.032 4.41604 17.604 3.07204 17.49 1.35004C17.49 1.30204 17.484 1.25404 17.484 1.20604C17.526 0.270035 17.088 0.0120352 16.32 0.00603516C15.468 -0.00596484 14.616 3.51563e-05 13.77 3.51563e-05C13.02 3.51563e-05 12.624 0.264035 12.594 1.18204C12.552 2.62204 11.592 3.84004 10.2 4.20604C9.072 4.50004 8.034 4.24204 7.122 3.51004C7.008 3.42004 6.906 3.31204 6.798 3.21604C6.468 2.92804 6.036 2.90404 5.694 3.17404C4.806 3.87004 4.008 4.65603 3.3 5.53803C2.994 5.92203 3.03 6.36003 3.414 6.75004C4.074 7.41604 4.452 8.20804 4.446 9.15604C4.446 10.764 3.36 12.072 1.782 12.384C1.5 12.438 1.206 12.462 0.912 12.492C0.39 12.534 0.108 12.756 0.078 13.29C0.018 14.136 0.018 14.988 0 15.834C0 15.984 0.018 16.128 0.03 16.272C0.072 17.022 0.396 17.352 1.146 17.376C1.902 17.406 2.574 17.658 3.168 18.132C4.608 19.278 4.788 21.528 3.546 22.89C3.45 22.992 3.354 23.088 3.264 23.196C2.976 23.526 2.952 23.952 3.216 24.294C3.912 25.176 4.692 25.968 5.562 26.67C5.952 26.982 6.378 26.94 6.774 26.556C7.458 25.89 8.268 25.542 9.222 25.536C10.956 25.524 12.39 26.868 12.498 28.608C12.498 28.662 12.504 28.722 12.504 28.782C12.468 29.592 12.834 29.91 13.626 29.94C13.77 29.94 13.914 29.976 14.052 30H15.876C16.044 29.976 16.218 29.946 16.392 29.934C17.064 29.874 17.352 29.61 17.37 28.938C17.4 27.996 17.718 27.186 18.396 26.526C19.596 25.356 21.624 25.326 22.884 26.442C23.04 26.586 23.19 26.754 23.376 26.85C23.718 27.03 24.072 26.994 24.354 26.718C25.116 25.974 25.884 25.242 26.622 24.474C27.012 24.066 26.988 23.61 26.586 23.202C25.992 22.602 25.626 21.906 25.548 21.06C25.374 19.278 26.724 17.646 28.506 17.484C28.704 17.466 28.896 17.46 29.094 17.448C29.52 17.436 29.85 17.148 29.91 16.722C29.952 16.452 29.982 16.182 30.018 15.912V14.088C30 13.944 29.958 13.8 29.958 13.656ZM15.102 7.77004C16.842 7.77004 18.228 9.16804 18.222 10.908C18.216 12.63 16.806 14.028 15.084 14.016C13.356 14.004 11.97 12.606 11.976 10.878C11.976 9.16203 13.38 7.76404 15.102 7.77004ZM20.508 21.36H9.504C9.054 21.36 8.898 21.174 8.952 20.724C9.198 18.672 10.188 17.07 11.97 16.038C12.948 15.48 13.932 15.186 14.916 15.156C14.946 15.156 14.976 15.15 15.006 15.15C15.036 15.15 15.066 15.156 15.102 15.156C16.08 15.186 17.07 15.48 18.048 16.038C19.83 17.07 20.814 18.672 21.066 20.724C21.12 21.174 20.958 21.36 20.508 21.36Z" fill="#817EFF"/>
</g>
<defs>
<clipPath id="clip0_140_10297">
<rect width="30.018" height="30" fill="white"/>
</clipPath>
</defs>
</svg>
