<?xml version="1.0" encoding="UTF-8"?>
<svg id="Layer_1" data-name="Layer 1" xmlns="http://www.w3.org/2000/svg" viewBox="0 0 100 100">
  <defs>
    <style>
      .cls-1 {
        fill: #fff;
      }
    </style>
  </defs>
  <path class="cls-1" d="M85.03,47.88v4.25c-.08,.63-.16,1.26-.25,1.89-.15,1-.91,1.67-1.91,1.71-.45,.02-.91,.04-1.36,.08-4.16,.38-7.31,4.18-6.91,8.35,.19,1.97,1.04,3.6,2.42,4.99,.94,.95,1.01,2.02,.09,2.97-1.72,1.79-3.51,3.51-5.29,5.23-.66,.64-1.48,.73-2.27,.31-.43-.22-.78-.62-1.16-.95-2.93-2.62-7.67-2.53-10.47,.19-1.58,1.54-2.33,3.43-2.39,5.63-.05,1.56-.72,2.19-2.28,2.32-.4,.03-.81,.1-1.21,.16h-4.25c-.33-.05-.67-.13-1-.14-1.85-.06-2.71-.81-2.62-2.7,0-.14,0-.27-.02-.41-.25-4.05-3.59-7.19-7.64-7.16-2.22,.02-4.12,.82-5.72,2.38-.92,.9-1.92,.99-2.82,.26-2.04-1.64-3.86-3.49-5.47-5.54-.63-.8-.56-1.79,.11-2.57,.21-.24,.43-.47,.65-.71,2.9-3.18,2.48-8.43-.88-11.11-1.39-1.1-2.95-1.69-4.72-1.75-1.75-.06-2.5-.83-2.6-2.58-.02-.34-.08-.68-.07-1.02,.05-1.98,.05-3.97,.18-5.94,.08-1.24,.73-1.75,1.95-1.86,.68-.06,1.36-.12,2.03-.25,3.68-.72,6.2-3.78,6.21-7.52,0-2.22-.87-4.06-2.42-5.62-.89-.9-.98-1.92-.26-2.82,1.65-2.06,3.51-3.9,5.59-5.52,.8-.62,1.81-.57,2.57,.09,.26,.22,.49,.48,.76,.69,2.13,1.71,4.55,2.31,7.19,1.62,3.24-.85,5.48-3.7,5.58-7.06,.07-2.14,.99-2.75,2.74-2.75,1.98,0,3.96-.01,5.95,0,1.8,.02,2.82,.61,2.73,2.8,0,.11,0,.23,.01,.34,.27,4.02,3.59,7.15,7.6,7.13,2.25-.01,4.17-.82,5.78-2.4,.9-.88,1.92-.95,2.82-.22,2.01,1.63,3.82,3.46,5.43,5.49,.65,.82,.59,1.82-.11,2.62-.2,.22-.4,.44-.6,.66-3.59,3.91-2.06,10.44,2.9,12.29,.86,.32,1.81,.47,2.73,.57,1.34,.15,2.56,.64,2.55,2.58,0,.34,.09,.67,.14,1.01Zm-17.77,12.37c4.37-6.71,4.23-17.64-3.2-24.76-8.07-7.73-20.04-7.75-28.15-.03-7.56,7.2-8.29,19.14-1.52,27.33,6.93,8.39,18.56,9.34,26.4,4.17-.14-.15-.27-.31-.41-.45-2.68-2.68-5.36-5.35-8.03-8.05-.34-.35-.61-.38-1.06-.22-3.1,1.11-6.18,1.03-9.2-.28-5.29-2.29-8.44-8.18-7.09-14.09,.15-.66,.33-1.25,1.04-1.47,.72-.23,1.21,.19,1.67,.66,1.71,1.71,3.44,3.41,5.14,5.13,.42,.43,.87,.62,1.47,.52,1.19-.2,2.39-.38,3.58-.55,.43-.06,.63-.3,.69-.71,.17-1.2,.36-2.39,.55-3.58,.1-.59-.08-1.03-.52-1.46-1.79-1.76-3.56-3.54-5.32-5.34-.87-.89-.58-2.12,.57-2.41,1.97-.5,3.97-.59,5.96-.1,7.39,1.83,11.37,9.22,8.82,16.38-.15,.41-.07,.65,.23,.94,1.89,1.86,3.75,3.74,5.62,5.61,.92,.92,1.83,1.84,2.76,2.77Z"/>
</svg>