<svg width="34" height="30" viewBox="0 0 34 30" fill="none" xmlns="http://www.w3.org/2000/svg">
<g clip-path="url(#clip0_140_10302)">
<path d="M3.55279 14.904C2.94679 15.474 2.40679 15.984 1.86679 16.488C1.59679 16.746 1.28479 16.89 0.900788 16.818C0.504788 16.746 0.198788 16.542 0.0667884 16.14C-0.0712116 15.72 0.000788391 15.336 0.318788 15.03C0.954788 14.412 1.60879 13.812 2.25679 13.206C6.76879 8.95798 11.2808 4.70998 15.7928 0.461976C16.4408 -0.150024 16.9628 -0.150024 17.6168 0.449976C22.9208 5.32798 28.2188 10.206 33.5228 15.078C33.8708 15.396 34.0268 15.762 33.9188 16.218C33.7268 17.004 32.8628 17.286 32.2088 16.752C31.7168 16.35 31.2608 15.9 30.7868 15.468C30.6788 15.366 30.5648 15.264 30.3908 15.102V15.558C30.3908 20.052 30.3908 24.546 30.3908 29.04C30.3908 29.772 30.1688 30 29.4428 30C21.1388 30 12.8348 30 4.52479 30C3.77479 30 3.54679 29.772 3.54679 29.028C3.54679 24.498 3.54679 19.968 3.54679 15.438V14.91L3.55279 14.904ZM16.9568 25.212C17.7128 25.212 18.4688 25.212 19.2308 25.212C19.9748 25.212 20.7188 25.218 21.4688 25.212C21.9848 25.206 22.1408 25.032 22.1408 24.516C22.1408 23.736 22.1408 22.956 22.1408 22.176C22.1408 21.528 22.0268 20.904 21.6548 20.352C20.6708 18.888 19.2248 18.174 17.5388 17.94C15.9008 17.706 14.4728 18.276 13.1828 19.266C12.2948 19.95 11.8088 20.838 11.7968 21.966C11.7908 22.782 11.7968 23.598 11.7968 24.414C11.7968 25.044 11.9708 25.212 12.6008 25.212C14.0528 25.212 15.5108 25.212 16.9628 25.212H16.9568ZM16.9688 10.47C15.2528 10.488 13.9508 11.814 13.9748 13.53C13.9928 15.234 15.3668 16.542 17.1548 16.476C18.7748 16.416 19.9988 15.018 19.9688 13.452C19.9388 11.772 18.6248 10.458 16.9688 10.47Z" fill="#817EFF"/>
</g>
<defs>
<clipPath id="clip0_140_10302">
<rect width="33.954" height="30" fill="white"/>
</clipPath>
</defs>
</svg>
