<?xml version="1.0" encoding="UTF-8"?>
<svg id="Layer_1" data-name="Layer 1" xmlns="http://www.w3.org/2000/svg" viewBox="0 0 100 100">
  <defs>
    <style>
      .cls-1 {
        fill: #fff;
      }
    </style>
  </defs>
  <path class="cls-1" d="M18.67,49.78c-1.42,1.33-2.68,2.52-3.94,3.7-.64,.6-1.36,.94-2.25,.77-.93-.17-1.64-.64-1.95-1.58-.32-.97-.15-1.87,.59-2.59,1.49-1.44,3.01-2.84,4.52-4.26,10.53-9.92,21.06-19.83,31.59-29.74,1.51-1.42,2.73-1.43,4.26-.02,12.37,11.38,24.74,22.77,37.12,34.13,.81,.75,1.18,1.59,.92,2.65-.44,1.83-2.46,2.49-3.99,1.25-1.15-.94-2.21-1.99-3.32-3-.26-.23-.52-.47-.93-.85v1.06c0,10.49,0,20.98,0,31.46,0,1.71-.52,2.24-2.21,2.24-19.38,0-38.76,0-58.14,0-1.75,0-2.28-.53-2.28-2.26,0-10.57,0-21.14,0-31.71v-1.24Zm31.27,24.05c1.77,0,3.53,0,5.3,0,1.74,0,3.48,.02,5.22,0,1.2-.02,1.57-.43,1.57-1.62,0-1.82,0-3.64,0-5.46,0-1.51-.27-2.97-1.13-4.25-2.3-3.42-5.67-5.08-9.61-5.63-3.83-.54-7.16,.78-10.16,3.1-2.08,1.6-3.21,3.67-3.23,6.31-.02,1.9-.01,3.81,0,5.71,0,1.46,.41,1.86,1.87,1.86,3.39,0,6.79,0,10.18,0Zm.03-34.4c-4,.04-7.04,3.13-6.99,7.14,.05,3.97,3.25,7.03,7.42,6.87,3.78-.14,6.64-3.4,6.57-7.05-.07-3.92-3.13-6.99-7.01-6.96Z"/>
</svg>