<svg width="111" height="119" viewBox="0 0 111 119" fill="none" xmlns="http://www.w3.org/2000/svg">
<path d="M106.39 89.9229C107.506 89.2761 108.432 88.3476 109.076 87.2304C109.72 86.1131 110.059 84.8462 110.059 83.5567V34.8083C110.059 33.5188 109.72 32.252 109.076 31.1347C108.432 30.0174 107.506 29.0889 106.39 28.4421L95.4306 22.1067C95.059 21.894 94.6382 21.7823 94.21 21.7828C93.7818 21.7833 93.3612 21.8959 92.9901 22.1096C92.619 22.3232 92.3104 22.6303 92.0949 23.0003C91.8794 23.3703 91.7646 23.7904 91.7619 24.2185V44.7044C91.7601 45.1337 91.6455 45.555 91.4296 45.9261C91.2138 46.2972 90.9042 46.6051 90.5319 46.8189C90.1596 47.0328 89.7377 47.1451 89.3084 47.1446C88.879 47.1441 88.4574 47.0309 88.0857 46.8162L75.4457 39.502C74.8399 39.1522 74.3369 38.6488 73.9878 38.0426C73.6387 37.4363 73.4557 36.7487 73.4572 36.0492V11.7328C73.4524 11.0334 73.2668 10.3472 72.9184 9.74082C72.5699 9.13443 72.0705 8.62852 71.4688 8.27221L58.8597 0.988834C57.7441 0.34114 56.4771 0 55.1872 0C53.8972 0 52.6302 0.34114 51.5146 0.988834L38.8747 8.27221C38.2677 8.62264 37.7642 9.12728 37.415 9.73498C37.0658 10.3427 36.8834 11.0319 36.8863 11.7328V34.0838C36.8865 35.3742 37.2264 36.6419 37.8717 37.7594C38.517 38.8769 39.4451 39.8048 40.5626 40.45L78.9371 62.6084C82.8445 64.8625 86.0896 68.1055 88.3463 72.0113C90.6029 75.9172 91.7916 80.3483 91.7928 84.8592V94.108C91.7931 94.5371 91.9065 94.9585 92.1214 95.3299C92.3364 95.7013 92.6453 96.0095 93.0172 96.2236C93.3891 96.4376 93.8107 96.55 94.2398 96.5493C94.6689 96.5487 95.0902 96.435 95.4615 96.2198L106.39 89.9229Z" fill="#4FC3F4"/>
<path d="M71.4685 110.093C72.0754 109.742 72.579 109.238 72.9282 108.63C73.2774 108.022 73.4598 107.333 73.4569 106.632V84.8438C73.4543 83.5547 73.1143 82.2888 72.4707 81.1719C71.8271 80.0551 70.9023 79.1262 69.7883 78.4776L31.4061 56.3192C27.4946 54.0627 24.2472 50.8147 21.9915 46.9028C19.7358 42.9908 18.5515 38.5532 18.5581 34.0375V24.2493C18.5585 23.8191 18.4454 23.3963 18.2301 23.0239C18.0148 22.6514 17.705 22.3424 17.3319 22.1281C16.9588 21.9138 16.5357 21.8018 16.1055 21.8035C15.6753 21.8051 15.2531 21.9204 14.8817 22.1375L3.95284 28.442C2.83831 29.09 1.91302 30.0188 1.26932 31.1358C0.62562 32.2528 0.285983 33.519 0.28418 34.8082V83.5875C0.285983 84.8767 0.62562 86.1429 1.26932 87.2599C1.91302 88.377 2.83831 89.3057 3.95284 89.9537L14.9125 96.2891C15.2843 96.5037 15.706 96.617 16.1353 96.6175C16.5647 96.6179 16.9865 96.5056 17.3588 96.2918C17.7311 96.078 18.0407 95.77 18.2565 95.3989C18.4724 95.0279 18.587 94.6066 18.5889 94.1773V74.3465C18.5869 73.9165 18.6987 73.4936 18.913 73.1208C19.1274 72.748 19.4367 72.4387 19.8094 72.2241C20.1821 72.0096 20.6049 71.8976 21.0349 71.8995C21.4649 71.9013 21.8868 72.017 22.2576 72.2347L34.8975 79.5181C35.5045 79.8685 36.0081 80.3731 36.3573 80.9809C36.7065 81.5886 36.8889 82.2777 36.886 82.9786V106.694C36.8908 107.393 37.0764 108.079 37.4249 108.686C37.7733 109.292 38.2726 109.798 38.8744 110.154L51.5143 117.438C52.6299 118.085 53.8969 118.427 55.1869 118.427C56.4768 118.427 57.7438 118.085 58.8594 117.438L71.4685 110.093Z" fill="#817EFF"/>
</svg>
