<svg width="159" height="244" viewBox="0 0 159 244" fill="none" xmlns="http://www.w3.org/2000/svg">
<g opacity="0.25">
<path d="M234.743 198.94C237.211 197.509 239.26 195.455 240.685 192.983C242.109 190.511 242.859 187.709 242.86 184.856V77.0078C242.859 74.1549 242.109 71.3523 240.685 68.8805C239.26 66.4087 237.211 64.3545 234.743 62.9236L210.497 48.9076C209.675 48.4369 208.743 48.1898 207.796 48.1909C206.849 48.192 205.918 48.4412 205.097 48.9138C204.276 49.3864 203.594 50.0659 203.117 50.8845C202.64 51.7031 202.386 52.6323 202.38 53.5796V98.9014C202.376 99.8512 202.123 100.783 201.645 101.604C201.168 102.425 200.483 103.106 199.659 103.579C198.835 104.052 197.902 104.301 196.952 104.3C196.002 104.299 195.07 104.048 194.247 103.573L166.283 87.3919C164.943 86.6181 163.83 85.5043 163.058 84.1631C162.285 82.8219 161.881 81.3007 161.884 79.753V25.9569C161.873 24.4097 161.463 22.8915 160.692 21.55C159.921 20.2085 158.816 19.0892 157.485 18.3009L129.589 2.18764C127.121 0.754718 124.318 0 121.464 0C118.611 0 115.808 0.754718 113.34 2.18764L85.3757 18.3009C84.0329 19.0762 82.9189 20.1926 82.1464 21.5371C81.3739 22.8815 80.9702 24.4063 80.9766 25.9569V75.405C80.9772 78.2599 81.7291 81.0643 83.1567 83.5366C84.5844 86.0088 86.6377 88.0617 89.11 89.4892L174.007 138.511C182.652 143.498 189.831 150.672 194.824 159.314C199.816 167.955 202.446 177.758 202.449 187.737V208.199C202.449 209.148 202.7 210.081 203.176 210.902C203.651 211.724 204.335 212.406 205.157 212.879C205.98 213.353 206.913 213.601 207.862 213.6C208.811 213.598 209.744 213.347 210.565 212.871L234.743 198.94Z" fill="#4FC3F4"/>
<path d="M157.484 243.563C158.827 242.787 159.941 241.671 160.713 240.326C161.486 238.982 161.889 237.457 161.883 235.907V187.703C161.877 184.851 161.125 182.051 159.701 179.58C158.277 177.109 156.231 175.054 153.767 173.619L68.8523 124.597C60.1987 119.605 53.0144 112.419 48.024 103.765C43.0336 95.1101 40.4136 85.2927 40.4281 75.3024V53.6476C40.4291 52.6957 40.1788 51.7606 39.7025 50.9365C39.2261 50.1125 38.5407 49.4289 37.7153 48.9548C36.89 48.4807 35.954 48.233 35.0022 48.2366C34.0504 48.2403 33.1163 48.4952 32.2947 48.9756L8.11633 62.9233C5.6506 64.3569 3.60355 66.4117 2.17947 68.8829C0.755383 71.3541 0.00398899 74.1554 0 77.0076V184.924C0.00398899 187.776 0.755383 190.577 2.17947 193.049C3.60355 195.52 5.6506 197.575 8.11633 199.008L32.3629 213.024C33.1855 213.499 34.1184 213.749 35.0682 213.751C36.018 213.752 36.9513 213.503 37.7749 213.03C38.5984 212.557 39.2834 211.876 39.761 211.055C40.2386 210.234 40.4922 209.302 40.4963 208.352V164.48C40.4918 163.528 40.7391 162.593 41.2134 161.768C41.6876 160.943 42.3719 160.259 43.1964 159.784C44.0209 159.31 44.9563 159.062 45.9076 159.066C46.859 159.07 47.7923 159.326 48.6127 159.808L76.5765 175.921C77.9193 176.696 79.0335 177.813 79.806 179.157C80.5786 180.502 80.982 182.026 80.9756 183.577V236.043C80.9862 237.59 81.397 239.108 82.1678 240.45C82.9387 241.791 84.0433 242.911 85.3747 243.699L113.339 259.812C115.806 261.245 118.61 262 121.463 262C124.317 262 127.12 261.245 129.588 259.812L157.484 243.563Z" fill="#817EFF"/>
</g>
</svg>
