<svg width="190" height="47" viewBox="0 0 190 47" fill="none" xmlns="http://www.w3.org/2000/svg">
<path d="M59.7115 36.3324C58.853 37.2226 57.8238 37.9307 56.6855 38.4143C55.5472 38.8979 54.3232 39.1472 53.0864 39.1472C51.8496 39.1472 50.6255 38.8979 49.4872 38.4143C48.3489 37.9307 47.3197 37.2226 46.4612 36.3324C45.5712 35.4324 44.8726 34.3616 44.4074 33.1845C43.9422 32.0074 43.7201 30.7483 43.7543 29.483C43.7211 28.2281 43.944 26.9796 44.4094 25.8137C44.8747 24.6478 45.5729 23.5889 46.4612 22.7018C47.3189 21.8102 48.3478 21.1009 49.4862 20.6163C50.6246 20.1318 51.8491 19.8821 53.0864 19.8821C54.3236 19.8821 55.548 20.1318 56.6865 20.6163C57.8249 21.1009 58.8538 21.8102 59.7115 22.7018C60.5961 23.5914 61.2914 24.6508 61.7556 25.8162C62.2199 26.9816 62.4433 28.2289 62.4127 29.483C62.4532 32.0335 61.482 34.4962 59.7115 36.3324ZM65.2727 17.6514C62.1214 14.4054 58.0659 12.7825 53.1062 12.7825C48.1465 12.7825 44.0683 14.4054 40.8716 17.6514C39.3237 19.201 38.1061 21.0485 37.2927 23.0822C36.4792 25.1158 36.0867 27.2934 36.1389 29.483C36.1389 34.2384 37.7165 38.2107 40.8716 41.3999C44.0267 44.589 48.1049 46.1893 53.1062 46.2007C58.0659 46.2007 62.1214 44.6004 65.2727 41.3999C68.3521 38.2094 70.0729 33.9484 70.0729 29.5143C70.0729 25.0802 68.3521 20.8191 65.2727 17.6287V17.6514Z" fill="white"/>
<path d="M80.912 0.911133H75.6232C74.9869 0.911133 74.4712 1.42688 74.4712 2.06309V44.2373C74.4712 44.8735 74.9869 45.3893 75.6232 45.3893H80.912C81.5482 45.3893 82.0639 44.8735 82.0639 44.2373V2.06309C82.0639 1.42688 81.5482 0.911133 80.912 0.911133Z" fill="white"/>
<path d="M110.091 36.3776C109.211 37.2695 108.162 37.9776 107.006 38.4609C105.849 38.9442 104.608 39.1931 103.355 39.1931C102.102 39.1931 100.861 38.9442 99.7049 38.4609C98.5486 37.9776 97.4999 37.2695 96.6194 36.3776C94.9128 34.4833 93.9934 32.0092 94.0487 29.4602C93.9999 26.9326 94.9196 24.4821 96.6194 22.6108C97.4757 21.6859 98.5194 20.9544 99.681 20.4651C100.843 19.9758 102.095 19.74 103.355 19.7735C104.616 19.7337 105.871 19.9666 107.033 20.4563C108.196 20.946 109.239 21.6809 110.091 22.6108C111.843 24.4544 112.792 26.9177 112.73 29.4602C112.798 32.024 111.85 34.5108 110.091 36.3776ZM112.548 14.7684V17.6512C111.283 16.1354 109.697 14.9188 107.906 14.0887C106.114 13.2587 104.161 12.8357 102.186 12.8504C100.077 12.7951 97.9797 13.1839 96.0304 13.9914C94.0811 14.7989 92.3232 16.0071 90.8709 17.5377C87.8974 20.6247 86.4106 24.5686 86.4106 29.3694C86.4106 34.1702 87.8974 38.1822 90.8709 41.377C92.3011 42.9436 94.0521 44.1834 96.0048 45.0118C97.9575 45.8403 100.066 46.238 102.186 46.1778C104.153 46.2151 106.104 45.8137 107.896 45.0029C109.688 44.1921 111.278 42.9923 112.548 41.4905V44.2654C112.548 44.5664 112.668 44.8551 112.881 45.0679C113.093 45.2808 113.382 45.4004 113.683 45.4004H118.614C118.915 45.4004 119.204 45.2808 119.417 45.0679C119.63 44.8551 119.749 44.5664 119.749 44.2654V14.7571C119.749 14.4561 119.63 14.1674 119.417 13.9546C119.204 13.7417 118.915 13.6222 118.614 13.6222H113.683C113.533 13.6222 113.385 13.6519 113.246 13.7096C113.108 13.7674 112.982 13.852 112.877 13.9586C112.771 14.0652 112.688 14.1916 112.631 14.3306C112.575 14.4696 112.547 14.6184 112.548 14.7684Z" fill="white"/>
<path d="M146.012 37.7057C144.498 38.6083 142.769 39.083 141.007 39.0789C139.765 39.115 138.529 38.8891 137.38 38.4159C136.231 37.9426 135.195 37.2327 134.339 36.3324C133.467 35.4224 132.785 34.3484 132.332 33.1725C131.879 31.9967 131.664 30.7426 131.7 29.483C131.658 28.2165 131.875 26.9548 132.338 25.7753C132.802 24.5958 133.501 23.5234 134.394 22.6242C135.287 21.725 136.354 21.0178 137.53 20.5461C138.707 20.0745 139.967 19.8483 141.234 19.8815C142.793 19.8534 144.334 20.2239 145.71 20.9577C147.087 21.6916 148.253 22.7645 149.099 24.0751C149.257 24.3092 149.498 24.4757 149.773 24.5418C150.048 24.6079 150.338 24.569 150.585 24.4326L154.841 22.1627C154.98 22.0917 155.103 21.9928 155.202 21.8722C155.302 21.7515 155.375 21.6117 155.417 21.4616C155.46 21.3114 155.471 21.154 155.45 20.9993C155.429 20.8446 155.377 20.6959 155.295 20.5624C154.025 18.331 152.182 16.4796 149.956 15.1999C147.257 13.6431 144.19 12.8414 141.075 12.8789C136.077 12.8789 131.976 14.4413 128.772 17.5662C125.617 20.6986 124.017 24.6652 124.017 29.483C124.017 34.3008 125.571 38.3128 128.704 41.3999C131.836 44.4869 135.939 46.0872 140.831 46.0872C143.916 46.1259 146.956 45.3424 149.638 43.8173C151.833 42.5948 153.697 40.8554 155.068 38.7498C155.156 38.6201 155.216 38.4737 155.244 38.3197C155.273 38.1658 155.269 38.0076 155.233 37.8552C155.198 37.7027 155.131 37.5593 155.037 37.434C154.943 37.3086 154.824 37.2041 154.688 37.1268L150.449 34.647C150.196 34.4976 149.896 34.4519 149.61 34.5197C149.324 34.5874 149.076 34.7632 148.917 35.0102C148.172 36.1233 147.177 37.0464 146.012 37.7057Z" fill="white"/>
<path d="M165.21 26.4415C165.607 24.3888 166.687 22.5309 168.274 21.1697C169.867 19.8558 171.884 19.166 173.949 19.229C175.97 19.1747 177.941 19.8654 179.487 21.1697C181.029 22.5202 182.004 24.403 182.217 26.4415H165.21ZM189.702 28.8305C189.702 23.9162 188.215 20.0177 185.241 17.1804C182.268 14.343 178.505 12.8506 173.932 12.8506C169.04 12.8506 165.073 14.4282 161.986 17.5833C158.899 20.7384 157.413 24.6369 157.413 29.5001C157.397 31.6029 157.748 33.6923 158.451 35.6742C159.131 37.6088 160.171 39.3974 161.515 40.9459C163.005 42.6043 164.855 43.8992 166.923 44.731C169.373 45.7071 171.993 46.1818 174.63 46.1269C179.233 46.2127 183.752 44.8923 187.585 42.3419C187.825 42.1777 187.996 41.9291 188.062 41.6454C188.128 41.3617 188.085 41.0635 187.942 40.8097L186.007 37.3652C185.934 37.228 185.834 37.1073 185.712 37.0105C185.591 36.9138 185.451 36.843 185.301 36.8025C185.151 36.7621 184.994 36.7529 184.84 36.7755C184.687 36.7981 184.539 36.852 184.407 36.9339C181.557 38.6914 178.267 39.6062 174.919 39.5727C172.263 39.5727 170.101 38.9201 168.456 37.6092C166.764 36.2705 165.611 34.3665 165.21 32.2467H188.419C188.703 32.2478 188.977 32.1424 189.188 31.9511C189.398 31.7599 189.528 31.4968 189.554 31.2139C189.645 30.4207 189.695 29.6232 189.702 28.8248V28.8305Z" fill="white"/>
<path d="M10.2735 36.6673L10.1601 36.6048C10.2032 36.6142 10.2426 36.6359 10.2735 36.6673ZM25.5952 22.5203C23.9949 21.7088 22.2812 20.92 20.4312 20.1766L15.8574 18.06C13.474 16.8399 12.2767 15.3304 12.2767 13.4862C12.2597 12.8462 12.3961 12.2114 12.6745 11.6349C12.9529 11.0583 13.3651 10.5568 13.8769 10.1722C15.1052 9.28557 16.5969 8.83967 18.1103 8.90671C19.8397 8.93049 21.5448 9.31716 23.1153 10.0417C24.451 10.6138 25.6718 11.4232 26.7187 12.4307C26.9292 12.6313 27.1995 12.7576 27.4884 12.7903C27.7773 12.8231 28.069 12.7606 28.319 12.6123C29.3575 11.9994 31.094 11.012 32.3537 10.2914C32.5259 10.192 32.6743 10.0561 32.7883 9.89329C32.9024 9.73047 32.9795 9.54464 33.0141 9.34887C33.0487 9.1531 33.04 8.95212 32.9887 8.76005C32.9373 8.56799 32.8446 8.3895 32.7169 8.23711C31.8258 7.18975 30.8273 6.23877 29.7377 5.39977C26.4748 2.73834 22.5535 1.42749 17.9797 1.42749C13.6726 1.42749 10.2282 2.62485 7.61214 5.01389C6.33645 6.09882 5.31811 7.454 4.63106 8.98122C3.94401 10.5084 3.60547 12.1694 3.63986 13.8437C3.63986 18.304 5.90973 21.845 10.4495 24.5007C12.1006 25.4091 13.8062 26.2145 15.5567 26.9125C17.7414 27.7694 19.1601 28.3538 19.8354 28.6716C22.5422 29.9995 23.87 31.6452 23.87 33.5802C23.8749 34.2863 23.7093 34.9831 23.3872 35.6114C23.0652 36.2397 22.5962 36.781 22.0201 37.1893C20.6363 38.192 18.9553 38.6998 17.2477 38.6307C15.2536 38.6522 13.2804 38.2214 11.4766 37.3709L10.0125 36.5368C8.7085 35.6706 7.55298 34.5994 6.59067 33.3646C6.39308 33.0999 6.10393 32.9184 5.77971 32.8554C5.45549 32.7925 5.11948 32.8526 4.83721 33.0241C3.77604 33.6313 2.15306 34.579 0.984079 35.2543C0.823683 35.349 0.684138 35.4751 0.573856 35.6253C0.463574 35.7754 0.384846 35.9463 0.342421 36.1276C0.299996 36.309 0.294716 36.4971 0.326974 36.6805C0.359232 36.864 0.428325 37.039 0.530077 37.195C1.09754 38.0292 1.77283 38.9315 2.23248 39.516C3.76136 41.4092 5.68428 42.9467 7.86747 44.0217C10.7191 45.4529 13.8699 46.1861 17.0604 46.161C21.6342 46.161 25.3587 44.9523 28.2339 42.5349C29.6276 41.4102 30.7432 39.9793 31.4942 38.3535C32.2451 36.7276 32.6111 34.9506 32.5637 33.1603C32.6942 28.4674 30.3505 24.932 25.5725 22.5203H25.5952Z" fill="white"/>
</svg>
